M48
;GenerationSoftware,Autodesk,EAGLE,9.3.0*%
;CreationDate,2019-02-12T21:01:55Z*%
FMAT,2
ICI,OFF
METRIC,TZ,000.000
T5C0.600
T4C0.610
T3C0.813
T2C1.016
T1C3.000
%
G90
M71
T1
X52070Y34290
X7620Y34290
T2
X45720Y29210
X40640Y29210
X43180Y29210
X38100Y29210
X36830Y3810
X52070Y3810
X49530Y3810
X46990Y3810
X44450Y3810
X41910Y3810
X39370Y3810
X34290Y3810
X31750Y3810
X29210Y3810
X26670Y3810
X24130Y3810
X21590Y3810
X16510Y3810
X13970Y3810
X11430Y3810
X19050Y3810
T3
X34290Y22860
X31750Y22860
X29210Y22860
X26670Y22860
X24130Y22860
X29210Y15240
X3810Y16510
X5715Y15240
X3810Y13970
X21590Y22860
X12700Y10160
X5080Y24130
X7620Y24130
X10160Y15240
X10160Y20320
X7620Y10160
X48260Y12700
X48260Y22860
X21590Y15240
X24130Y15240
X26670Y15240
X31750Y15240
X34290Y15240
X39370Y22860
X36830Y15240
X39370Y15240
X41910Y15240
X41910Y22860
X36830Y22860
T4
X30480Y29210
X25400Y29210
T5
X44450Y22860
X33150Y37038
X44450Y13970
M30