G04 EAGLE Gerber RS-274X export*
G75*
%MOMM*%
%FSLAX34Y34*%
%LPD*%
%INTop Copper*%
%IPPOS*%
%AMOC8*
5,1,8,0,0,1.08239X$1,22.5*%
G01*
%ADD10R,1.600000X1.800000*%
%ADD11P,1.429621X8X22.500000*%
%ADD12P,1.429621X8X292.500000*%
%ADD13C,1.320800*%
%ADD14C,1.320800*%
%ADD15C,1.524000*%
%ADD16C,1.117600*%
%ADD17R,1.803000X1.600000*%
%ADD18C,5.842000*%
%ADD19C,0.400000*%
%ADD20C,1.006400*%


D10*
X255300Y355600D03*
X227300Y355600D03*
X303500Y355600D03*
X331500Y355600D03*
D11*
X50800Y241300D03*
X76200Y241300D03*
D12*
X101600Y152400D03*
D13*
X101600Y203200D03*
D11*
X127000Y101600D03*
D13*
X76200Y101600D03*
D14*
X482600Y120396D02*
X482600Y133604D01*
X482600Y221996D02*
X482600Y235204D01*
X215900Y159004D02*
X215900Y145796D01*
X241300Y145796D02*
X241300Y159004D01*
X266700Y159004D02*
X266700Y145796D01*
X292100Y145796D02*
X292100Y159004D01*
X317500Y159004D02*
X317500Y145796D01*
X342900Y145796D02*
X342900Y159004D01*
X368300Y159004D02*
X368300Y145796D01*
X393700Y145796D02*
X393700Y159004D01*
X419100Y159004D02*
X419100Y145796D01*
X419100Y221996D02*
X419100Y235204D01*
X393700Y235204D02*
X393700Y221996D01*
X368300Y221996D02*
X368300Y235204D01*
X342900Y235204D02*
X342900Y221996D01*
X317500Y221996D02*
X317500Y235204D01*
X292100Y235204D02*
X292100Y221996D01*
X266700Y221996D02*
X266700Y235204D01*
X241300Y235204D02*
X241300Y221996D01*
X215900Y221996D02*
X215900Y235204D01*
D12*
X38100Y165100D03*
X57150Y152400D03*
X38100Y139700D03*
D15*
X457200Y284480D02*
X457200Y299720D01*
X431800Y299720D02*
X431800Y284480D01*
X406400Y284480D02*
X406400Y299720D01*
X381000Y299720D02*
X381000Y284480D01*
X520700Y45720D02*
X520700Y30480D01*
X495300Y30480D02*
X495300Y45720D01*
X469900Y45720D02*
X469900Y30480D01*
X444500Y30480D02*
X444500Y45720D01*
X419100Y45720D02*
X419100Y30480D01*
X393700Y30480D02*
X393700Y45720D01*
X368300Y45720D02*
X368300Y30480D01*
X342900Y30480D02*
X342900Y45720D01*
X317500Y45720D02*
X317500Y30480D01*
X292100Y30480D02*
X292100Y45720D01*
X266700Y45720D02*
X266700Y30480D01*
X241300Y30480D02*
X241300Y45720D01*
X215900Y45720D02*
X215900Y30480D01*
X190500Y30480D02*
X190500Y45720D01*
X165100Y45720D02*
X165100Y30480D01*
X139700Y30480D02*
X139700Y45720D01*
X114300Y45720D02*
X114300Y30480D01*
D16*
X304800Y286512D02*
X304800Y297688D01*
X254000Y297688D02*
X254000Y286512D01*
D17*
X533400Y201680D03*
X533400Y230120D03*
D18*
X76200Y342900D03*
X520700Y342900D03*
D19*
X431800Y342900D01*
X381000Y292100D01*
X367000Y292100D02*
X303500Y355600D01*
X367000Y292100D02*
X381000Y292100D01*
X127000Y127000D02*
X127000Y101600D01*
X127000Y127000D02*
X101600Y152400D01*
X127000Y50800D02*
X114300Y38100D01*
X127000Y50800D02*
X127000Y101600D01*
X76200Y241300D02*
X76200Y342900D01*
X255300Y355600D02*
X303500Y355600D01*
X101600Y152400D02*
X57150Y152400D01*
X255300Y355600D02*
X236300Y374600D01*
X107900Y374600D01*
X76200Y342900D01*
X317500Y152400D02*
X381000Y215900D01*
X381000Y292100D01*
X101600Y203200D02*
X88900Y203200D01*
X50800Y241300D01*
X50800Y177800D02*
X38100Y165100D01*
X50800Y177800D02*
X50800Y241300D01*
X38100Y139700D02*
X76200Y101600D01*
X254000Y241300D02*
X266700Y228600D01*
X254000Y241300D02*
X254000Y292100D01*
X254000Y328900D02*
X227300Y355600D01*
X254000Y328900D02*
X254000Y292100D01*
X304800Y241300D02*
X292100Y228600D01*
X304800Y241300D02*
X304800Y292100D01*
X331500Y355600D02*
X331500Y370382D01*
D20*
X331500Y370382D03*
D19*
X406400Y292100D02*
X406400Y203200D01*
X482600Y127000D01*
X520700Y88900D01*
X520700Y38100D01*
X342900Y63500D02*
X317500Y38100D01*
X342900Y63500D02*
X342900Y152400D01*
X368300Y63500D02*
X342900Y38100D01*
X368300Y63500D02*
X368300Y152400D01*
X393700Y63500D02*
X368300Y38100D01*
X393700Y63500D02*
X393700Y152400D01*
X419100Y63500D02*
X393700Y38100D01*
X419100Y63500D02*
X419100Y152400D01*
X419100Y228600D02*
X444500Y228600D01*
X444500Y63500D02*
X419100Y38100D01*
X444500Y63500D02*
X444500Y139700D01*
D20*
X444500Y228600D03*
X444500Y139700D03*
D19*
X292100Y38100D02*
X266700Y63500D01*
X266700Y152400D01*
X241300Y63500D02*
X266700Y38100D01*
X241300Y63500D02*
X241300Y152400D01*
X215900Y63500D02*
X241300Y38100D01*
X215900Y63500D02*
X215900Y152400D01*
X190500Y177800D02*
X190500Y38100D01*
X190500Y177800D02*
X241300Y228600D01*
X531880Y228600D02*
X533400Y230120D01*
X531880Y228600D02*
X482600Y228600D01*
X533400Y201680D02*
X533400Y26747D01*
X525513Y18860D01*
X184340Y18860D01*
X165100Y38100D01*
M02*
