G04 EAGLE Gerber RS-274X export*
G75*
%MOMM*%
%FSLAX34Y34*%
%LPD*%
%INSilkscreen Top*%
%IPPOS*%
%AMOC8*
5,1,8,0,0,1.08239X$1,22.5*%
G01*
%ADD10C,0.101600*%
%ADD11C,0.152400*%
%ADD12C,0.254000*%
%ADD13C,0.127000*%
%ADD14R,2.032000X0.508000*%
%ADD15R,0.508000X1.905000*%
%ADD16C,0.177800*%
%ADD17C,0.050800*%
%ADD18C,0.203200*%


D10*
X242636Y330708D02*
X240039Y330708D01*
X239940Y330710D01*
X239840Y330716D01*
X239741Y330725D01*
X239643Y330738D01*
X239545Y330755D01*
X239447Y330776D01*
X239351Y330801D01*
X239256Y330829D01*
X239162Y330861D01*
X239069Y330896D01*
X238977Y330935D01*
X238887Y330978D01*
X238799Y331023D01*
X238712Y331073D01*
X238628Y331125D01*
X238545Y331181D01*
X238465Y331239D01*
X238387Y331301D01*
X238312Y331366D01*
X238239Y331434D01*
X238169Y331504D01*
X238101Y331577D01*
X238036Y331652D01*
X237974Y331730D01*
X237916Y331810D01*
X237860Y331893D01*
X237808Y331977D01*
X237758Y332064D01*
X237713Y332152D01*
X237670Y332242D01*
X237631Y332334D01*
X237596Y332427D01*
X237564Y332521D01*
X237536Y332616D01*
X237511Y332712D01*
X237490Y332810D01*
X237473Y332908D01*
X237460Y333006D01*
X237451Y333105D01*
X237445Y333205D01*
X237443Y333304D01*
X237443Y339796D01*
X237445Y339895D01*
X237451Y339995D01*
X237460Y340094D01*
X237473Y340192D01*
X237490Y340290D01*
X237511Y340388D01*
X237536Y340484D01*
X237564Y340579D01*
X237596Y340673D01*
X237631Y340766D01*
X237670Y340858D01*
X237713Y340948D01*
X237758Y341036D01*
X237808Y341123D01*
X237860Y341207D01*
X237916Y341290D01*
X237974Y341370D01*
X238036Y341448D01*
X238101Y341523D01*
X238169Y341596D01*
X238239Y341666D01*
X238312Y341734D01*
X238387Y341799D01*
X238465Y341861D01*
X238545Y341919D01*
X238628Y341975D01*
X238712Y342027D01*
X238799Y342077D01*
X238887Y342122D01*
X238977Y342165D01*
X239069Y342204D01*
X239161Y342239D01*
X239256Y342271D01*
X239351Y342299D01*
X239447Y342324D01*
X239545Y342345D01*
X239643Y342362D01*
X239741Y342375D01*
X239840Y342384D01*
X239940Y342390D01*
X240039Y342392D01*
X242636Y342392D01*
X247001Y339796D02*
X250246Y342392D01*
X250246Y330708D01*
X247001Y330708D02*
X253492Y330708D01*
X307904Y368808D02*
X310501Y368808D01*
X307904Y368808D02*
X307805Y368810D01*
X307705Y368816D01*
X307606Y368825D01*
X307508Y368838D01*
X307410Y368855D01*
X307312Y368876D01*
X307216Y368901D01*
X307121Y368929D01*
X307027Y368961D01*
X306934Y368996D01*
X306842Y369035D01*
X306752Y369078D01*
X306664Y369123D01*
X306577Y369173D01*
X306493Y369225D01*
X306410Y369281D01*
X306330Y369339D01*
X306252Y369401D01*
X306177Y369466D01*
X306104Y369534D01*
X306034Y369604D01*
X305966Y369677D01*
X305901Y369752D01*
X305839Y369830D01*
X305781Y369910D01*
X305725Y369993D01*
X305673Y370077D01*
X305623Y370164D01*
X305578Y370252D01*
X305535Y370342D01*
X305496Y370434D01*
X305461Y370527D01*
X305429Y370621D01*
X305401Y370716D01*
X305376Y370812D01*
X305355Y370910D01*
X305338Y371008D01*
X305325Y371106D01*
X305316Y371205D01*
X305310Y371305D01*
X305308Y371404D01*
X305308Y377896D01*
X305310Y377995D01*
X305316Y378095D01*
X305325Y378194D01*
X305338Y378292D01*
X305355Y378390D01*
X305376Y378488D01*
X305401Y378584D01*
X305429Y378679D01*
X305461Y378773D01*
X305496Y378866D01*
X305535Y378958D01*
X305578Y379048D01*
X305623Y379136D01*
X305673Y379223D01*
X305725Y379307D01*
X305781Y379390D01*
X305839Y379470D01*
X305901Y379548D01*
X305966Y379623D01*
X306034Y379696D01*
X306104Y379766D01*
X306177Y379834D01*
X306252Y379899D01*
X306330Y379961D01*
X306410Y380019D01*
X306493Y380075D01*
X306577Y380127D01*
X306664Y380177D01*
X306752Y380222D01*
X306842Y380265D01*
X306934Y380304D01*
X307026Y380339D01*
X307121Y380371D01*
X307216Y380399D01*
X307312Y380424D01*
X307410Y380445D01*
X307508Y380462D01*
X307606Y380475D01*
X307705Y380484D01*
X307805Y380490D01*
X307904Y380492D01*
X310501Y380492D01*
X318436Y380492D02*
X318543Y380490D01*
X318649Y380484D01*
X318755Y380474D01*
X318861Y380461D01*
X318967Y380443D01*
X319071Y380422D01*
X319175Y380397D01*
X319278Y380368D01*
X319379Y380336D01*
X319479Y380299D01*
X319578Y380259D01*
X319676Y380216D01*
X319772Y380169D01*
X319866Y380118D01*
X319958Y380064D01*
X320048Y380007D01*
X320136Y379947D01*
X320221Y379883D01*
X320304Y379816D01*
X320385Y379746D01*
X320463Y379674D01*
X320539Y379598D01*
X320611Y379520D01*
X320681Y379439D01*
X320748Y379356D01*
X320812Y379271D01*
X320872Y379183D01*
X320929Y379093D01*
X320983Y379001D01*
X321034Y378907D01*
X321081Y378811D01*
X321124Y378713D01*
X321164Y378614D01*
X321201Y378514D01*
X321233Y378413D01*
X321262Y378310D01*
X321287Y378206D01*
X321308Y378102D01*
X321326Y377996D01*
X321339Y377890D01*
X321349Y377784D01*
X321355Y377678D01*
X321357Y377571D01*
X318436Y380492D02*
X318315Y380490D01*
X318194Y380484D01*
X318074Y380474D01*
X317953Y380461D01*
X317834Y380443D01*
X317714Y380422D01*
X317596Y380397D01*
X317479Y380368D01*
X317362Y380335D01*
X317247Y380299D01*
X317133Y380258D01*
X317020Y380215D01*
X316908Y380167D01*
X316799Y380116D01*
X316691Y380061D01*
X316584Y380003D01*
X316480Y379942D01*
X316378Y379877D01*
X316278Y379809D01*
X316180Y379738D01*
X316084Y379664D01*
X315991Y379587D01*
X315901Y379506D01*
X315813Y379423D01*
X315728Y379337D01*
X315645Y379248D01*
X315566Y379157D01*
X315489Y379063D01*
X315416Y378967D01*
X315346Y378869D01*
X315279Y378768D01*
X315215Y378665D01*
X315155Y378560D01*
X315098Y378453D01*
X315044Y378345D01*
X314994Y378235D01*
X314948Y378123D01*
X314905Y378010D01*
X314866Y377895D01*
X320384Y375299D02*
X320463Y375376D01*
X320539Y375457D01*
X320612Y375540D01*
X320682Y375625D01*
X320749Y375713D01*
X320813Y375803D01*
X320873Y375895D01*
X320930Y375990D01*
X320984Y376086D01*
X321035Y376184D01*
X321082Y376284D01*
X321126Y376386D01*
X321166Y376489D01*
X321202Y376593D01*
X321234Y376699D01*
X321263Y376805D01*
X321288Y376913D01*
X321310Y377021D01*
X321327Y377131D01*
X321341Y377240D01*
X321350Y377350D01*
X321356Y377461D01*
X321358Y377571D01*
X320384Y375299D02*
X314866Y368808D01*
X321357Y368808D01*
D11*
X85090Y254000D02*
X41910Y254000D01*
X41910Y228600D02*
X85090Y228600D01*
X87630Y231140D02*
X87630Y251460D01*
X39370Y251460D02*
X39370Y231140D01*
X85090Y254000D02*
X85190Y253998D01*
X85289Y253992D01*
X85389Y253982D01*
X85487Y253969D01*
X85586Y253951D01*
X85683Y253930D01*
X85779Y253905D01*
X85875Y253876D01*
X85969Y253843D01*
X86062Y253807D01*
X86153Y253767D01*
X86243Y253723D01*
X86331Y253676D01*
X86417Y253626D01*
X86501Y253572D01*
X86583Y253515D01*
X86662Y253455D01*
X86740Y253391D01*
X86814Y253325D01*
X86886Y253256D01*
X86955Y253184D01*
X87021Y253110D01*
X87085Y253032D01*
X87145Y252953D01*
X87202Y252871D01*
X87256Y252787D01*
X87306Y252701D01*
X87353Y252613D01*
X87397Y252523D01*
X87437Y252432D01*
X87473Y252339D01*
X87506Y252245D01*
X87535Y252149D01*
X87560Y252053D01*
X87581Y251956D01*
X87599Y251857D01*
X87612Y251759D01*
X87622Y251659D01*
X87628Y251560D01*
X87630Y251460D01*
X41910Y254000D02*
X41810Y253998D01*
X41711Y253992D01*
X41611Y253982D01*
X41513Y253969D01*
X41414Y253951D01*
X41317Y253930D01*
X41221Y253905D01*
X41125Y253876D01*
X41031Y253843D01*
X40938Y253807D01*
X40847Y253767D01*
X40757Y253723D01*
X40669Y253676D01*
X40583Y253626D01*
X40499Y253572D01*
X40417Y253515D01*
X40338Y253455D01*
X40260Y253391D01*
X40186Y253325D01*
X40114Y253256D01*
X40045Y253184D01*
X39979Y253110D01*
X39915Y253032D01*
X39855Y252953D01*
X39798Y252871D01*
X39744Y252787D01*
X39694Y252701D01*
X39647Y252613D01*
X39603Y252523D01*
X39563Y252432D01*
X39527Y252339D01*
X39494Y252245D01*
X39465Y252149D01*
X39440Y252053D01*
X39419Y251956D01*
X39401Y251857D01*
X39388Y251759D01*
X39378Y251659D01*
X39372Y251560D01*
X39370Y251460D01*
X85090Y228600D02*
X85190Y228602D01*
X85289Y228608D01*
X85389Y228618D01*
X85487Y228631D01*
X85586Y228649D01*
X85683Y228670D01*
X85779Y228695D01*
X85875Y228724D01*
X85969Y228757D01*
X86062Y228793D01*
X86153Y228833D01*
X86243Y228877D01*
X86331Y228924D01*
X86417Y228974D01*
X86501Y229028D01*
X86583Y229085D01*
X86662Y229145D01*
X86740Y229209D01*
X86814Y229275D01*
X86886Y229344D01*
X86955Y229416D01*
X87021Y229490D01*
X87085Y229568D01*
X87145Y229647D01*
X87202Y229729D01*
X87256Y229813D01*
X87306Y229899D01*
X87353Y229987D01*
X87397Y230077D01*
X87437Y230168D01*
X87473Y230261D01*
X87506Y230355D01*
X87535Y230451D01*
X87560Y230547D01*
X87581Y230644D01*
X87599Y230743D01*
X87612Y230841D01*
X87622Y230941D01*
X87628Y231040D01*
X87630Y231140D01*
X41910Y228600D02*
X41810Y228602D01*
X41711Y228608D01*
X41611Y228618D01*
X41513Y228631D01*
X41414Y228649D01*
X41317Y228670D01*
X41221Y228695D01*
X41125Y228724D01*
X41031Y228757D01*
X40938Y228793D01*
X40847Y228833D01*
X40757Y228877D01*
X40669Y228924D01*
X40583Y228974D01*
X40499Y229028D01*
X40417Y229085D01*
X40338Y229145D01*
X40260Y229209D01*
X40186Y229275D01*
X40114Y229344D01*
X40045Y229416D01*
X39979Y229490D01*
X39915Y229568D01*
X39855Y229647D01*
X39798Y229729D01*
X39744Y229813D01*
X39694Y229899D01*
X39647Y229987D01*
X39603Y230077D01*
X39563Y230168D01*
X39527Y230261D01*
X39494Y230355D01*
X39465Y230451D01*
X39440Y230547D01*
X39419Y230644D01*
X39401Y230743D01*
X39388Y230841D01*
X39378Y230941D01*
X39372Y231040D01*
X39370Y231140D01*
X66040Y241300D02*
X67310Y241300D01*
D12*
X66040Y241300D02*
X66040Y248920D01*
X66040Y241300D02*
X66040Y233680D01*
X60960Y241300D02*
X60960Y248920D01*
X60960Y241300D02*
X60960Y233680D01*
D11*
X60960Y241300D02*
X59690Y241300D01*
D13*
X46355Y257175D02*
X43815Y257175D01*
X43715Y257177D01*
X43616Y257183D01*
X43516Y257193D01*
X43418Y257206D01*
X43319Y257224D01*
X43222Y257245D01*
X43126Y257270D01*
X43030Y257299D01*
X42936Y257332D01*
X42843Y257368D01*
X42752Y257408D01*
X42662Y257452D01*
X42574Y257499D01*
X42488Y257549D01*
X42404Y257603D01*
X42322Y257660D01*
X42243Y257720D01*
X42165Y257784D01*
X42091Y257850D01*
X42019Y257919D01*
X41950Y257991D01*
X41884Y258065D01*
X41820Y258143D01*
X41760Y258222D01*
X41703Y258304D01*
X41649Y258388D01*
X41599Y258474D01*
X41552Y258562D01*
X41508Y258652D01*
X41468Y258743D01*
X41432Y258836D01*
X41399Y258930D01*
X41370Y259026D01*
X41345Y259122D01*
X41324Y259219D01*
X41306Y259318D01*
X41293Y259416D01*
X41283Y259516D01*
X41277Y259615D01*
X41275Y259715D01*
X41275Y266065D01*
X41277Y266165D01*
X41283Y266264D01*
X41293Y266364D01*
X41306Y266462D01*
X41324Y266561D01*
X41345Y266658D01*
X41370Y266754D01*
X41399Y266850D01*
X41432Y266944D01*
X41468Y267037D01*
X41508Y267128D01*
X41552Y267218D01*
X41599Y267306D01*
X41649Y267392D01*
X41703Y267476D01*
X41760Y267558D01*
X41820Y267637D01*
X41884Y267715D01*
X41950Y267789D01*
X42019Y267861D01*
X42091Y267930D01*
X42165Y267996D01*
X42243Y268060D01*
X42322Y268120D01*
X42404Y268177D01*
X42488Y268231D01*
X42574Y268281D01*
X42662Y268328D01*
X42752Y268372D01*
X42843Y268412D01*
X42936Y268448D01*
X43030Y268481D01*
X43126Y268510D01*
X43222Y268535D01*
X43319Y268556D01*
X43418Y268574D01*
X43516Y268587D01*
X43616Y268597D01*
X43715Y268603D01*
X43815Y268605D01*
X46355Y268605D01*
X50837Y257175D02*
X54012Y257175D01*
X54123Y257177D01*
X54233Y257183D01*
X54344Y257192D01*
X54454Y257206D01*
X54563Y257223D01*
X54672Y257244D01*
X54780Y257269D01*
X54887Y257298D01*
X54993Y257330D01*
X55098Y257366D01*
X55201Y257406D01*
X55303Y257449D01*
X55404Y257496D01*
X55503Y257547D01*
X55599Y257600D01*
X55694Y257657D01*
X55787Y257718D01*
X55878Y257781D01*
X55967Y257848D01*
X56053Y257918D01*
X56136Y257991D01*
X56218Y258066D01*
X56296Y258144D01*
X56371Y258226D01*
X56444Y258309D01*
X56514Y258395D01*
X56581Y258484D01*
X56644Y258575D01*
X56705Y258668D01*
X56762Y258762D01*
X56815Y258859D01*
X56866Y258958D01*
X56913Y259059D01*
X56956Y259161D01*
X56996Y259264D01*
X57032Y259369D01*
X57064Y259475D01*
X57093Y259582D01*
X57118Y259690D01*
X57139Y259799D01*
X57156Y259908D01*
X57170Y260018D01*
X57179Y260129D01*
X57185Y260239D01*
X57187Y260350D01*
X57185Y260461D01*
X57179Y260571D01*
X57170Y260682D01*
X57156Y260792D01*
X57139Y260901D01*
X57118Y261010D01*
X57093Y261118D01*
X57064Y261225D01*
X57032Y261331D01*
X56996Y261436D01*
X56956Y261539D01*
X56913Y261641D01*
X56866Y261742D01*
X56815Y261841D01*
X56762Y261937D01*
X56705Y262032D01*
X56644Y262125D01*
X56581Y262216D01*
X56514Y262305D01*
X56444Y262391D01*
X56371Y262474D01*
X56296Y262556D01*
X56218Y262634D01*
X56136Y262709D01*
X56053Y262782D01*
X55967Y262852D01*
X55878Y262919D01*
X55787Y262982D01*
X55694Y263043D01*
X55600Y263100D01*
X55503Y263153D01*
X55404Y263204D01*
X55303Y263251D01*
X55201Y263294D01*
X55098Y263334D01*
X54993Y263370D01*
X54887Y263402D01*
X54780Y263431D01*
X54672Y263456D01*
X54563Y263477D01*
X54454Y263494D01*
X54344Y263508D01*
X54233Y263517D01*
X54123Y263523D01*
X54012Y263525D01*
X54647Y268605D02*
X50837Y268605D01*
X54647Y268605D02*
X54747Y268603D01*
X54846Y268597D01*
X54946Y268587D01*
X55044Y268574D01*
X55143Y268556D01*
X55240Y268535D01*
X55336Y268510D01*
X55432Y268481D01*
X55526Y268448D01*
X55619Y268412D01*
X55710Y268372D01*
X55800Y268328D01*
X55888Y268281D01*
X55974Y268231D01*
X56058Y268177D01*
X56140Y268120D01*
X56219Y268060D01*
X56297Y267996D01*
X56371Y267930D01*
X56443Y267861D01*
X56512Y267789D01*
X56578Y267715D01*
X56642Y267637D01*
X56702Y267558D01*
X56759Y267476D01*
X56813Y267392D01*
X56863Y267306D01*
X56910Y267218D01*
X56954Y267128D01*
X56994Y267037D01*
X57030Y266944D01*
X57063Y266850D01*
X57092Y266754D01*
X57117Y266658D01*
X57138Y266561D01*
X57156Y266462D01*
X57169Y266364D01*
X57179Y266264D01*
X57185Y266165D01*
X57187Y266065D01*
X57185Y265965D01*
X57179Y265866D01*
X57169Y265766D01*
X57156Y265668D01*
X57138Y265569D01*
X57117Y265472D01*
X57092Y265376D01*
X57063Y265280D01*
X57030Y265186D01*
X56994Y265093D01*
X56954Y265002D01*
X56910Y264912D01*
X56863Y264824D01*
X56813Y264738D01*
X56759Y264654D01*
X56702Y264572D01*
X56642Y264493D01*
X56578Y264415D01*
X56512Y264341D01*
X56443Y264269D01*
X56371Y264200D01*
X56297Y264134D01*
X56219Y264070D01*
X56140Y264010D01*
X56058Y263953D01*
X55974Y263899D01*
X55888Y263849D01*
X55800Y263802D01*
X55710Y263758D01*
X55619Y263718D01*
X55526Y263682D01*
X55432Y263649D01*
X55336Y263620D01*
X55240Y263595D01*
X55143Y263574D01*
X55044Y263556D01*
X54946Y263543D01*
X54846Y263533D01*
X54747Y263527D01*
X54647Y263525D01*
X52107Y263525D01*
D11*
X101600Y191770D02*
X101600Y182880D01*
X95250Y182880D01*
X95250Y179578D01*
X107950Y179578D01*
X107950Y182880D01*
X101600Y182880D01*
X101600Y172720D02*
X101600Y163830D01*
X105410Y189230D02*
X110490Y189230D01*
X107950Y186690D02*
X107950Y191770D01*
X107950Y176022D02*
X95250Y176022D01*
X107950Y176022D02*
X107950Y172720D01*
X95250Y172720D02*
X95250Y176022D01*
X95250Y172720D02*
X101600Y172720D01*
X107950Y172720D01*
X106680Y174498D02*
X96520Y174498D01*
X89108Y158656D02*
X88643Y158968D01*
X88185Y159291D01*
X87735Y159626D01*
X87294Y159971D01*
X86862Y160327D01*
X86438Y160693D01*
X86023Y161070D01*
X85618Y161457D01*
X85222Y161853D01*
X84836Y162259D01*
X84460Y162675D01*
X84095Y163100D01*
X83740Y163533D01*
X83396Y163975D01*
X83062Y164425D01*
X82740Y164884D01*
X82429Y165350D01*
X82130Y165823D01*
X81842Y166304D01*
X81566Y166792D01*
X81302Y167286D01*
X81051Y167787D01*
X80812Y168293D01*
X80585Y168805D01*
X80371Y169323D01*
X80169Y169846D01*
X79981Y170374D01*
X79805Y170906D01*
X79643Y171442D01*
X79494Y171982D01*
X79358Y172525D01*
X79235Y173072D01*
X79126Y173622D01*
X79030Y174174D01*
X78948Y174728D01*
X78880Y175284D01*
X78825Y175841D01*
X78784Y176400D01*
X78756Y176960D01*
X78743Y177520D01*
X78743Y178080D01*
X78756Y178640D01*
X78784Y179200D01*
X78825Y179759D01*
X78880Y180316D01*
X78948Y180872D01*
X79030Y181426D01*
X79126Y181978D01*
X79235Y182528D01*
X79358Y183075D01*
X79494Y183618D01*
X79643Y184158D01*
X79805Y184694D01*
X79981Y185226D01*
X80169Y185754D01*
X80371Y186277D01*
X80585Y186795D01*
X80812Y187307D01*
X81051Y187813D01*
X81302Y188314D01*
X81566Y188808D01*
X81842Y189296D01*
X82130Y189777D01*
X82429Y190250D01*
X82740Y190716D01*
X83062Y191175D01*
X83396Y191625D01*
X83740Y192067D01*
X84095Y192500D01*
X84460Y192925D01*
X84836Y193341D01*
X85222Y193747D01*
X85618Y194143D01*
X86023Y194530D01*
X86438Y194907D01*
X86862Y195273D01*
X87294Y195629D01*
X87735Y195974D01*
X88185Y196309D01*
X88643Y196632D01*
X89108Y196944D01*
X114092Y196944D02*
X114557Y196632D01*
X115015Y196309D01*
X115465Y195974D01*
X115906Y195629D01*
X116338Y195273D01*
X116762Y194907D01*
X117177Y194530D01*
X117582Y194143D01*
X117978Y193747D01*
X118364Y193341D01*
X118740Y192925D01*
X119105Y192500D01*
X119460Y192067D01*
X119804Y191625D01*
X120138Y191175D01*
X120460Y190716D01*
X120771Y190250D01*
X121070Y189777D01*
X121358Y189296D01*
X121634Y188808D01*
X121898Y188314D01*
X122149Y187813D01*
X122388Y187307D01*
X122615Y186795D01*
X122829Y186277D01*
X123031Y185754D01*
X123219Y185226D01*
X123395Y184694D01*
X123557Y184158D01*
X123706Y183618D01*
X123842Y183075D01*
X123965Y182528D01*
X124074Y181978D01*
X124170Y181426D01*
X124252Y180872D01*
X124320Y180316D01*
X124375Y179759D01*
X124416Y179200D01*
X124444Y178640D01*
X124457Y178080D01*
X124457Y177520D01*
X124444Y176960D01*
X124416Y176400D01*
X124375Y175841D01*
X124320Y175284D01*
X124252Y174728D01*
X124170Y174174D01*
X124074Y173622D01*
X123965Y173072D01*
X123842Y172525D01*
X123706Y171982D01*
X123557Y171442D01*
X123395Y170906D01*
X123219Y170374D01*
X123031Y169846D01*
X122829Y169323D01*
X122615Y168805D01*
X122388Y168293D01*
X122149Y167787D01*
X121898Y167286D01*
X121634Y166792D01*
X121358Y166304D01*
X121070Y165823D01*
X120771Y165350D01*
X120460Y164884D01*
X120138Y164425D01*
X119804Y163975D01*
X119460Y163533D01*
X119105Y163100D01*
X118740Y162675D01*
X118364Y162259D01*
X117978Y161853D01*
X117582Y161457D01*
X117177Y161070D01*
X116762Y160693D01*
X116338Y160327D01*
X115906Y159971D01*
X115465Y159626D01*
X115015Y159291D01*
X114557Y158968D01*
X114092Y158656D01*
D13*
X91821Y175930D02*
X83185Y175930D01*
X83185Y178328D02*
X83185Y173531D01*
X83185Y183656D02*
X91821Y183656D01*
X83185Y181257D02*
X83185Y186055D01*
X123825Y143473D02*
X123825Y140933D01*
X123823Y140833D01*
X123817Y140734D01*
X123807Y140634D01*
X123794Y140536D01*
X123776Y140437D01*
X123755Y140340D01*
X123730Y140244D01*
X123701Y140148D01*
X123668Y140054D01*
X123632Y139961D01*
X123592Y139870D01*
X123548Y139780D01*
X123501Y139692D01*
X123451Y139606D01*
X123397Y139522D01*
X123340Y139440D01*
X123280Y139361D01*
X123216Y139283D01*
X123150Y139209D01*
X123081Y139137D01*
X123009Y139068D01*
X122935Y139002D01*
X122857Y138938D01*
X122778Y138878D01*
X122696Y138821D01*
X122612Y138767D01*
X122526Y138717D01*
X122438Y138670D01*
X122348Y138626D01*
X122257Y138586D01*
X122164Y138550D01*
X122070Y138517D01*
X121974Y138488D01*
X121878Y138463D01*
X121781Y138442D01*
X121682Y138424D01*
X121584Y138411D01*
X121484Y138401D01*
X121385Y138395D01*
X121285Y138393D01*
X114935Y138393D01*
X114835Y138395D01*
X114736Y138401D01*
X114636Y138411D01*
X114538Y138424D01*
X114439Y138442D01*
X114342Y138463D01*
X114246Y138488D01*
X114150Y138517D01*
X114056Y138550D01*
X113963Y138586D01*
X113872Y138626D01*
X113782Y138670D01*
X113694Y138717D01*
X113608Y138767D01*
X113524Y138821D01*
X113442Y138878D01*
X113363Y138938D01*
X113285Y139002D01*
X113211Y139068D01*
X113139Y139137D01*
X113070Y139209D01*
X113004Y139283D01*
X112940Y139361D01*
X112880Y139440D01*
X112823Y139522D01*
X112769Y139606D01*
X112719Y139692D01*
X112672Y139780D01*
X112628Y139870D01*
X112588Y139961D01*
X112552Y140054D01*
X112519Y140148D01*
X112490Y140244D01*
X112465Y140340D01*
X112444Y140437D01*
X112426Y140536D01*
X112413Y140634D01*
X112403Y140734D01*
X112397Y140833D01*
X112395Y140933D01*
X112395Y143473D01*
X112395Y150495D02*
X121285Y147955D01*
X121285Y154305D01*
X118745Y152400D02*
X123825Y152400D01*
D11*
X96520Y101600D02*
X87630Y101600D01*
X96520Y101600D02*
X96520Y95250D01*
X99822Y95250D01*
X99822Y107950D01*
X96520Y107950D01*
X96520Y101600D01*
X106680Y101600D02*
X115570Y101600D01*
X90170Y105410D02*
X90170Y110490D01*
X92710Y107950D02*
X87630Y107950D01*
X103378Y107950D02*
X103378Y95250D01*
X103378Y107950D02*
X106680Y107950D01*
X106680Y95250D02*
X103378Y95250D01*
X106680Y95250D02*
X106680Y101600D01*
X106680Y107950D01*
X104902Y106680D02*
X104902Y96520D01*
X120744Y89108D02*
X120432Y88643D01*
X120109Y88185D01*
X119774Y87735D01*
X119429Y87294D01*
X119073Y86862D01*
X118707Y86438D01*
X118330Y86023D01*
X117943Y85618D01*
X117547Y85222D01*
X117141Y84836D01*
X116725Y84460D01*
X116300Y84095D01*
X115867Y83740D01*
X115425Y83396D01*
X114975Y83062D01*
X114516Y82740D01*
X114050Y82429D01*
X113577Y82130D01*
X113096Y81842D01*
X112608Y81566D01*
X112114Y81302D01*
X111613Y81051D01*
X111107Y80812D01*
X110595Y80585D01*
X110077Y80371D01*
X109554Y80169D01*
X109026Y79981D01*
X108494Y79805D01*
X107958Y79643D01*
X107418Y79494D01*
X106875Y79358D01*
X106328Y79235D01*
X105778Y79126D01*
X105226Y79030D01*
X104672Y78948D01*
X104116Y78880D01*
X103559Y78825D01*
X103000Y78784D01*
X102440Y78756D01*
X101880Y78743D01*
X101320Y78743D01*
X100760Y78756D01*
X100200Y78784D01*
X99641Y78825D01*
X99084Y78880D01*
X98528Y78948D01*
X97974Y79030D01*
X97422Y79126D01*
X96872Y79235D01*
X96325Y79358D01*
X95782Y79494D01*
X95242Y79643D01*
X94706Y79805D01*
X94174Y79981D01*
X93646Y80169D01*
X93123Y80371D01*
X92605Y80585D01*
X92093Y80812D01*
X91587Y81051D01*
X91086Y81302D01*
X90592Y81566D01*
X90104Y81842D01*
X89623Y82130D01*
X89150Y82429D01*
X88684Y82740D01*
X88225Y83062D01*
X87775Y83396D01*
X87333Y83740D01*
X86900Y84095D01*
X86475Y84460D01*
X86059Y84836D01*
X85653Y85222D01*
X85257Y85618D01*
X84870Y86023D01*
X84493Y86438D01*
X84127Y86862D01*
X83771Y87294D01*
X83426Y87735D01*
X83091Y88185D01*
X82768Y88643D01*
X82456Y89108D01*
X82456Y114092D02*
X82768Y114557D01*
X83091Y115015D01*
X83426Y115465D01*
X83771Y115906D01*
X84127Y116338D01*
X84493Y116762D01*
X84870Y117177D01*
X85257Y117582D01*
X85653Y117978D01*
X86059Y118364D01*
X86475Y118740D01*
X86900Y119105D01*
X87333Y119460D01*
X87775Y119804D01*
X88225Y120138D01*
X88684Y120460D01*
X89150Y120771D01*
X89623Y121070D01*
X90104Y121358D01*
X90592Y121634D01*
X91086Y121898D01*
X91587Y122149D01*
X92093Y122388D01*
X92605Y122615D01*
X93123Y122829D01*
X93646Y123031D01*
X94174Y123219D01*
X94706Y123395D01*
X95242Y123557D01*
X95782Y123706D01*
X96325Y123842D01*
X96872Y123965D01*
X97422Y124074D01*
X97974Y124170D01*
X98528Y124252D01*
X99084Y124320D01*
X99641Y124375D01*
X100200Y124416D01*
X100760Y124444D01*
X101320Y124457D01*
X101880Y124457D01*
X102440Y124444D01*
X103000Y124416D01*
X103559Y124375D01*
X104116Y124320D01*
X104672Y124252D01*
X105226Y124170D01*
X105778Y124074D01*
X106328Y123965D01*
X106875Y123842D01*
X107418Y123706D01*
X107958Y123557D01*
X108494Y123395D01*
X109026Y123219D01*
X109554Y123031D01*
X110077Y122829D01*
X110595Y122615D01*
X111107Y122388D01*
X111613Y122149D01*
X112114Y121898D01*
X112608Y121634D01*
X113096Y121358D01*
X113577Y121070D01*
X114050Y120771D01*
X114516Y120460D01*
X114975Y120138D01*
X115425Y119804D01*
X115867Y119460D01*
X116300Y119105D01*
X116725Y118740D01*
X117141Y118364D01*
X117547Y117978D01*
X117943Y117582D01*
X118330Y117177D01*
X118707Y116762D01*
X119073Y116338D01*
X119429Y115906D01*
X119774Y115465D01*
X120109Y115015D01*
X120432Y114557D01*
X120744Y114092D01*
D13*
X95744Y91821D02*
X95744Y83185D01*
X93345Y91821D02*
X98143Y91821D01*
X103471Y91821D02*
X103471Y83185D01*
X105869Y91821D02*
X101072Y91821D01*
X153035Y125095D02*
X155575Y125095D01*
X153035Y125095D02*
X152935Y125097D01*
X152836Y125103D01*
X152736Y125113D01*
X152638Y125126D01*
X152539Y125144D01*
X152442Y125165D01*
X152346Y125190D01*
X152250Y125219D01*
X152156Y125252D01*
X152063Y125288D01*
X151972Y125328D01*
X151882Y125372D01*
X151794Y125419D01*
X151708Y125469D01*
X151624Y125523D01*
X151542Y125580D01*
X151463Y125640D01*
X151385Y125704D01*
X151311Y125770D01*
X151239Y125839D01*
X151170Y125911D01*
X151104Y125985D01*
X151040Y126063D01*
X150980Y126142D01*
X150923Y126224D01*
X150869Y126308D01*
X150819Y126394D01*
X150772Y126482D01*
X150728Y126572D01*
X150688Y126663D01*
X150652Y126756D01*
X150619Y126850D01*
X150590Y126946D01*
X150565Y127042D01*
X150544Y127139D01*
X150526Y127238D01*
X150513Y127336D01*
X150503Y127436D01*
X150497Y127535D01*
X150495Y127635D01*
X150495Y133985D01*
X150497Y134085D01*
X150503Y134184D01*
X150513Y134284D01*
X150526Y134382D01*
X150544Y134481D01*
X150565Y134578D01*
X150590Y134674D01*
X150619Y134770D01*
X150652Y134864D01*
X150688Y134957D01*
X150728Y135048D01*
X150772Y135138D01*
X150819Y135226D01*
X150869Y135312D01*
X150923Y135396D01*
X150980Y135478D01*
X151040Y135557D01*
X151104Y135635D01*
X151170Y135709D01*
X151239Y135781D01*
X151311Y135850D01*
X151385Y135916D01*
X151463Y135980D01*
X151542Y136040D01*
X151624Y136097D01*
X151708Y136151D01*
X151794Y136201D01*
X151882Y136248D01*
X151972Y136292D01*
X152063Y136332D01*
X152156Y136368D01*
X152250Y136401D01*
X152346Y136430D01*
X152442Y136455D01*
X152539Y136476D01*
X152638Y136494D01*
X152736Y136507D01*
X152836Y136517D01*
X152935Y136523D01*
X153035Y136525D01*
X155575Y136525D01*
X160057Y125095D02*
X163867Y125095D01*
X163967Y125097D01*
X164066Y125103D01*
X164166Y125113D01*
X164264Y125126D01*
X164363Y125144D01*
X164460Y125165D01*
X164556Y125190D01*
X164652Y125219D01*
X164746Y125252D01*
X164839Y125288D01*
X164930Y125328D01*
X165020Y125372D01*
X165108Y125419D01*
X165194Y125469D01*
X165278Y125523D01*
X165360Y125580D01*
X165439Y125640D01*
X165517Y125704D01*
X165591Y125770D01*
X165663Y125839D01*
X165732Y125911D01*
X165798Y125985D01*
X165862Y126063D01*
X165922Y126142D01*
X165979Y126224D01*
X166033Y126308D01*
X166083Y126394D01*
X166130Y126482D01*
X166174Y126572D01*
X166214Y126663D01*
X166250Y126756D01*
X166283Y126850D01*
X166312Y126946D01*
X166337Y127042D01*
X166358Y127139D01*
X166376Y127238D01*
X166389Y127336D01*
X166399Y127436D01*
X166405Y127535D01*
X166407Y127635D01*
X166407Y128905D01*
X166405Y129005D01*
X166399Y129104D01*
X166389Y129204D01*
X166376Y129302D01*
X166358Y129401D01*
X166337Y129498D01*
X166312Y129594D01*
X166283Y129690D01*
X166250Y129784D01*
X166214Y129877D01*
X166174Y129968D01*
X166130Y130058D01*
X166083Y130146D01*
X166033Y130232D01*
X165979Y130316D01*
X165922Y130398D01*
X165862Y130477D01*
X165798Y130555D01*
X165732Y130629D01*
X165663Y130701D01*
X165591Y130770D01*
X165517Y130836D01*
X165439Y130900D01*
X165360Y130960D01*
X165278Y131017D01*
X165194Y131071D01*
X165108Y131121D01*
X165020Y131168D01*
X164930Y131212D01*
X164839Y131252D01*
X164746Y131288D01*
X164652Y131321D01*
X164556Y131350D01*
X164460Y131375D01*
X164363Y131396D01*
X164264Y131414D01*
X164166Y131427D01*
X164066Y131437D01*
X163967Y131443D01*
X163867Y131445D01*
X160057Y131445D01*
X160057Y136525D01*
X166407Y136525D01*
D11*
X482600Y171450D02*
X482600Y177800D01*
X476250Y187960D02*
X488950Y187960D01*
X482600Y177800D01*
X482600Y193040D01*
X476250Y187960D02*
X482600Y177800D01*
X476250Y177800D01*
X482600Y177800D02*
X488950Y177800D01*
X472440Y198120D02*
X472442Y198220D01*
X472448Y198319D01*
X472458Y198419D01*
X472471Y198517D01*
X472489Y198616D01*
X472510Y198713D01*
X472535Y198809D01*
X472564Y198905D01*
X472597Y198999D01*
X472633Y199092D01*
X472673Y199183D01*
X472717Y199273D01*
X472764Y199361D01*
X472814Y199447D01*
X472868Y199531D01*
X472925Y199613D01*
X472985Y199692D01*
X473049Y199770D01*
X473115Y199844D01*
X473184Y199916D01*
X473256Y199985D01*
X473330Y200051D01*
X473408Y200115D01*
X473487Y200175D01*
X473569Y200232D01*
X473653Y200286D01*
X473739Y200336D01*
X473827Y200383D01*
X473917Y200427D01*
X474008Y200467D01*
X474101Y200503D01*
X474195Y200536D01*
X474291Y200565D01*
X474387Y200590D01*
X474484Y200611D01*
X474583Y200629D01*
X474681Y200642D01*
X474781Y200652D01*
X474880Y200658D01*
X474980Y200660D01*
X472440Y157480D02*
X472442Y157380D01*
X472448Y157281D01*
X472458Y157181D01*
X472471Y157083D01*
X472489Y156984D01*
X472510Y156887D01*
X472535Y156791D01*
X472564Y156695D01*
X472597Y156601D01*
X472633Y156508D01*
X472673Y156417D01*
X472717Y156327D01*
X472764Y156239D01*
X472814Y156153D01*
X472868Y156069D01*
X472925Y155987D01*
X472985Y155908D01*
X473049Y155830D01*
X473115Y155756D01*
X473184Y155684D01*
X473256Y155615D01*
X473330Y155549D01*
X473408Y155485D01*
X473487Y155425D01*
X473569Y155368D01*
X473653Y155314D01*
X473739Y155264D01*
X473827Y155217D01*
X473917Y155173D01*
X474008Y155133D01*
X474101Y155097D01*
X474195Y155064D01*
X474291Y155035D01*
X474387Y155010D01*
X474484Y154989D01*
X474583Y154971D01*
X474681Y154958D01*
X474781Y154948D01*
X474880Y154942D01*
X474980Y154940D01*
X490220Y154940D02*
X490320Y154942D01*
X490419Y154948D01*
X490519Y154958D01*
X490617Y154971D01*
X490716Y154989D01*
X490813Y155010D01*
X490909Y155035D01*
X491005Y155064D01*
X491099Y155097D01*
X491192Y155133D01*
X491283Y155173D01*
X491373Y155217D01*
X491461Y155264D01*
X491547Y155314D01*
X491631Y155368D01*
X491713Y155425D01*
X491792Y155485D01*
X491870Y155549D01*
X491944Y155615D01*
X492016Y155684D01*
X492085Y155756D01*
X492151Y155830D01*
X492215Y155908D01*
X492275Y155987D01*
X492332Y156069D01*
X492386Y156153D01*
X492436Y156239D01*
X492483Y156327D01*
X492527Y156417D01*
X492567Y156508D01*
X492603Y156601D01*
X492636Y156695D01*
X492665Y156791D01*
X492690Y156887D01*
X492711Y156984D01*
X492729Y157083D01*
X492742Y157181D01*
X492752Y157281D01*
X492758Y157380D01*
X492760Y157480D01*
X492760Y198120D02*
X492758Y198220D01*
X492752Y198319D01*
X492742Y198419D01*
X492729Y198517D01*
X492711Y198616D01*
X492690Y198713D01*
X492665Y198809D01*
X492636Y198905D01*
X492603Y198999D01*
X492567Y199092D01*
X492527Y199183D01*
X492483Y199273D01*
X492436Y199361D01*
X492386Y199447D01*
X492332Y199531D01*
X492275Y199613D01*
X492215Y199692D01*
X492151Y199770D01*
X492085Y199844D01*
X492016Y199916D01*
X491944Y199985D01*
X491870Y200051D01*
X491792Y200115D01*
X491713Y200175D01*
X491631Y200232D01*
X491547Y200286D01*
X491461Y200336D01*
X491373Y200383D01*
X491283Y200427D01*
X491192Y200467D01*
X491099Y200503D01*
X491005Y200536D01*
X490909Y200565D01*
X490813Y200590D01*
X490716Y200611D01*
X490617Y200629D01*
X490519Y200642D01*
X490419Y200652D01*
X490320Y200658D01*
X490220Y200660D01*
X474980Y200660D01*
X474980Y154940D02*
X490220Y154940D01*
X472440Y157480D02*
X472440Y198120D01*
X492760Y198120D02*
X492760Y157480D01*
D14*
X482600Y161290D03*
D15*
X482600Y210185D03*
X482600Y145415D03*
D13*
X469265Y156845D02*
X457835Y156845D01*
X457835Y160020D01*
X457837Y160131D01*
X457843Y160241D01*
X457852Y160352D01*
X457866Y160462D01*
X457883Y160571D01*
X457904Y160680D01*
X457929Y160788D01*
X457958Y160895D01*
X457990Y161001D01*
X458026Y161106D01*
X458066Y161209D01*
X458109Y161311D01*
X458156Y161412D01*
X458207Y161511D01*
X458260Y161608D01*
X458317Y161702D01*
X458378Y161795D01*
X458441Y161886D01*
X458508Y161975D01*
X458578Y162061D01*
X458651Y162144D01*
X458726Y162226D01*
X458804Y162304D01*
X458886Y162379D01*
X458969Y162452D01*
X459055Y162522D01*
X459144Y162589D01*
X459235Y162652D01*
X459328Y162713D01*
X459423Y162770D01*
X459519Y162823D01*
X459618Y162874D01*
X459719Y162921D01*
X459821Y162964D01*
X459924Y163004D01*
X460029Y163040D01*
X460135Y163072D01*
X460242Y163101D01*
X460350Y163126D01*
X460459Y163147D01*
X460568Y163164D01*
X460678Y163178D01*
X460789Y163187D01*
X460899Y163193D01*
X461010Y163195D01*
X466090Y163195D01*
X466201Y163193D01*
X466311Y163187D01*
X466422Y163178D01*
X466532Y163164D01*
X466641Y163147D01*
X466750Y163126D01*
X466858Y163101D01*
X466965Y163072D01*
X467071Y163040D01*
X467176Y163004D01*
X467279Y162964D01*
X467381Y162921D01*
X467482Y162874D01*
X467581Y162823D01*
X467678Y162770D01*
X467772Y162713D01*
X467865Y162652D01*
X467956Y162589D01*
X468045Y162522D01*
X468131Y162452D01*
X468214Y162379D01*
X468296Y162304D01*
X468374Y162226D01*
X468449Y162144D01*
X468522Y162061D01*
X468592Y161975D01*
X468659Y161886D01*
X468722Y161795D01*
X468783Y161702D01*
X468840Y161608D01*
X468893Y161511D01*
X468944Y161412D01*
X468991Y161311D01*
X469034Y161209D01*
X469074Y161106D01*
X469110Y161001D01*
X469142Y160895D01*
X469171Y160788D01*
X469196Y160680D01*
X469217Y160571D01*
X469234Y160462D01*
X469248Y160352D01*
X469257Y160241D01*
X469263Y160131D01*
X469265Y160020D01*
X469265Y156845D01*
X460375Y168656D02*
X457835Y171831D01*
X469265Y171831D01*
X469265Y168656D02*
X469265Y175006D01*
D11*
X203200Y184150D02*
X203200Y165100D01*
X203200Y184150D02*
X203358Y184152D01*
X203517Y184158D01*
X203675Y184168D01*
X203832Y184182D01*
X203990Y184199D01*
X204146Y184221D01*
X204303Y184246D01*
X204458Y184276D01*
X204613Y184309D01*
X204767Y184346D01*
X204920Y184387D01*
X205072Y184432D01*
X205222Y184481D01*
X205372Y184533D01*
X205520Y184589D01*
X205667Y184649D01*
X205812Y184712D01*
X205955Y184779D01*
X206097Y184849D01*
X206237Y184923D01*
X206375Y185001D01*
X206511Y185082D01*
X206645Y185166D01*
X206777Y185253D01*
X206907Y185344D01*
X207034Y185438D01*
X207159Y185535D01*
X207282Y185636D01*
X207402Y185739D01*
X207519Y185845D01*
X207634Y185954D01*
X207746Y186066D01*
X207855Y186181D01*
X207961Y186298D01*
X208064Y186418D01*
X208165Y186541D01*
X208262Y186666D01*
X208356Y186793D01*
X208447Y186923D01*
X208534Y187055D01*
X208618Y187189D01*
X208699Y187325D01*
X208777Y187463D01*
X208851Y187603D01*
X208921Y187745D01*
X208988Y187888D01*
X209051Y188033D01*
X209111Y188180D01*
X209167Y188328D01*
X209219Y188478D01*
X209268Y188628D01*
X209313Y188780D01*
X209354Y188933D01*
X209391Y189087D01*
X209424Y189242D01*
X209454Y189397D01*
X209479Y189554D01*
X209501Y189710D01*
X209518Y189868D01*
X209532Y190025D01*
X209542Y190183D01*
X209548Y190342D01*
X209550Y190500D01*
X209548Y190658D01*
X209542Y190817D01*
X209532Y190975D01*
X209518Y191132D01*
X209501Y191290D01*
X209479Y191446D01*
X209454Y191603D01*
X209424Y191758D01*
X209391Y191913D01*
X209354Y192067D01*
X209313Y192220D01*
X209268Y192372D01*
X209219Y192522D01*
X209167Y192672D01*
X209111Y192820D01*
X209051Y192967D01*
X208988Y193112D01*
X208921Y193255D01*
X208851Y193397D01*
X208777Y193537D01*
X208699Y193675D01*
X208618Y193811D01*
X208534Y193945D01*
X208447Y194077D01*
X208356Y194207D01*
X208262Y194334D01*
X208165Y194459D01*
X208064Y194582D01*
X207961Y194702D01*
X207855Y194819D01*
X207746Y194934D01*
X207634Y195046D01*
X207519Y195155D01*
X207402Y195261D01*
X207282Y195364D01*
X207159Y195465D01*
X207034Y195562D01*
X206907Y195656D01*
X206777Y195747D01*
X206645Y195834D01*
X206511Y195918D01*
X206375Y195999D01*
X206237Y196077D01*
X206097Y196151D01*
X205955Y196221D01*
X205812Y196288D01*
X205667Y196351D01*
X205520Y196411D01*
X205372Y196467D01*
X205222Y196519D01*
X205072Y196568D01*
X204920Y196613D01*
X204767Y196654D01*
X204613Y196691D01*
X204458Y196724D01*
X204303Y196754D01*
X204146Y196779D01*
X203990Y196801D01*
X203832Y196818D01*
X203675Y196832D01*
X203517Y196842D01*
X203358Y196848D01*
X203200Y196850D01*
X203200Y165100D02*
X431800Y165100D01*
X431800Y215900D01*
X203200Y215900D01*
X203200Y196850D01*
D16*
X197993Y167767D02*
X181991Y167767D01*
X197993Y165989D02*
X197993Y169545D01*
X181991Y169545D02*
X181991Y165989D01*
X197993Y179339D02*
X197993Y182895D01*
X197993Y179339D02*
X197991Y179223D01*
X197985Y179106D01*
X197976Y178990D01*
X197963Y178875D01*
X197946Y178760D01*
X197925Y178645D01*
X197900Y178532D01*
X197872Y178419D01*
X197840Y178307D01*
X197804Y178196D01*
X197765Y178086D01*
X197722Y177978D01*
X197676Y177871D01*
X197626Y177766D01*
X197573Y177663D01*
X197517Y177561D01*
X197457Y177461D01*
X197394Y177363D01*
X197327Y177268D01*
X197258Y177174D01*
X197186Y177083D01*
X197111Y176994D01*
X197032Y176908D01*
X196951Y176825D01*
X196868Y176744D01*
X196782Y176665D01*
X196693Y176590D01*
X196602Y176518D01*
X196508Y176449D01*
X196413Y176382D01*
X196315Y176319D01*
X196215Y176259D01*
X196113Y176203D01*
X196010Y176150D01*
X195905Y176100D01*
X195798Y176054D01*
X195690Y176011D01*
X195580Y175972D01*
X195469Y175936D01*
X195357Y175904D01*
X195244Y175876D01*
X195131Y175851D01*
X195016Y175830D01*
X194901Y175813D01*
X194786Y175800D01*
X194670Y175791D01*
X194553Y175785D01*
X194437Y175783D01*
X185547Y175783D01*
X185431Y175785D01*
X185314Y175791D01*
X185198Y175800D01*
X185083Y175813D01*
X184968Y175830D01*
X184853Y175851D01*
X184740Y175876D01*
X184627Y175904D01*
X184515Y175936D01*
X184404Y175972D01*
X184294Y176011D01*
X184186Y176054D01*
X184079Y176100D01*
X183974Y176150D01*
X183871Y176203D01*
X183769Y176259D01*
X183669Y176319D01*
X183571Y176382D01*
X183476Y176449D01*
X183382Y176518D01*
X183291Y176590D01*
X183202Y176665D01*
X183116Y176744D01*
X183033Y176825D01*
X182952Y176908D01*
X182873Y176994D01*
X182798Y177083D01*
X182726Y177174D01*
X182657Y177268D01*
X182590Y177363D01*
X182527Y177461D01*
X182467Y177561D01*
X182411Y177663D01*
X182358Y177766D01*
X182308Y177871D01*
X182262Y177978D01*
X182219Y178086D01*
X182180Y178196D01*
X182144Y178307D01*
X182112Y178419D01*
X182084Y178532D01*
X182059Y178645D01*
X182038Y178760D01*
X182021Y178875D01*
X182008Y178990D01*
X181999Y179106D01*
X181993Y179223D01*
X181991Y179339D01*
X181991Y182895D01*
X185547Y188853D02*
X181991Y193298D01*
X197993Y193298D01*
X197993Y188853D02*
X197993Y197743D01*
D11*
X63584Y160269D02*
X63386Y160884D01*
X63173Y161495D01*
X62946Y162100D01*
X62703Y162699D01*
X62447Y163292D01*
X62176Y163879D01*
X61890Y164459D01*
X61591Y165032D01*
X61278Y165598D01*
X60952Y166156D01*
X60612Y166705D01*
X60259Y167247D01*
X59892Y167780D01*
X59513Y168303D01*
X59122Y168817D01*
X58718Y169322D01*
X58302Y169817D01*
X57874Y170301D01*
X57434Y170775D01*
X56984Y171238D01*
X56522Y171691D01*
X56049Y172131D01*
X55565Y172561D01*
X55072Y172978D01*
X54568Y173383D01*
X54055Y173776D01*
X53532Y174157D01*
X53001Y174524D01*
X52460Y174879D01*
X51911Y175220D01*
X51354Y175548D01*
X50790Y175863D01*
X50217Y176163D01*
X49638Y176450D01*
X49052Y176723D01*
X48459Y176981D01*
X47861Y177225D01*
X47256Y177454D01*
X46647Y177669D01*
X46032Y177868D01*
X45412Y178053D01*
X44789Y178223D01*
X44161Y178377D01*
X43530Y178516D01*
X42895Y178640D01*
X42258Y178749D01*
X41618Y178842D01*
X40977Y178919D01*
X40333Y178981D01*
X39688Y179028D01*
X39043Y179058D01*
X38397Y179073D01*
X37750Y179073D01*
X37104Y179056D01*
X36458Y179024D01*
X35814Y178977D01*
X35170Y178914D01*
X34529Y178835D01*
X33889Y178740D01*
X33252Y178631D01*
X32618Y178506D01*
X31987Y178365D01*
X31360Y178209D01*
X30736Y178038D01*
X30117Y177852D01*
X29503Y177651D01*
X28894Y177436D01*
X28290Y177205D01*
X27692Y176960D01*
X27099Y176701D01*
X26514Y176427D01*
X25935Y176139D01*
X25363Y175837D01*
X24799Y175522D01*
X24243Y175193D01*
X23695Y174850D01*
X23155Y174494D01*
X22624Y174126D01*
X22102Y173744D01*
X21590Y173350D01*
X21590Y131450D02*
X22102Y131056D01*
X22624Y130674D01*
X23155Y130306D01*
X23695Y129950D01*
X24243Y129607D01*
X24799Y129278D01*
X25363Y128963D01*
X25935Y128661D01*
X26514Y128373D01*
X27099Y128099D01*
X27692Y127840D01*
X28290Y127595D01*
X28894Y127364D01*
X29503Y127149D01*
X30117Y126948D01*
X30736Y126762D01*
X31360Y126591D01*
X31987Y126435D01*
X32618Y126294D01*
X33252Y126169D01*
X33889Y126060D01*
X34529Y125965D01*
X35170Y125886D01*
X35814Y125823D01*
X36458Y125776D01*
X37104Y125744D01*
X37750Y125727D01*
X38397Y125727D01*
X39043Y125742D01*
X39688Y125772D01*
X40333Y125819D01*
X40977Y125881D01*
X41618Y125958D01*
X42258Y126051D01*
X42895Y126160D01*
X43530Y126284D01*
X44161Y126423D01*
X44789Y126577D01*
X45412Y126747D01*
X46032Y126932D01*
X46647Y127131D01*
X47256Y127346D01*
X47861Y127575D01*
X48459Y127819D01*
X49052Y128077D01*
X49638Y128350D01*
X50217Y128637D01*
X50790Y128937D01*
X51354Y129252D01*
X51911Y129580D01*
X52460Y129921D01*
X53001Y130276D01*
X53532Y130643D01*
X54055Y131024D01*
X54568Y131417D01*
X55072Y131822D01*
X55565Y132239D01*
X56049Y132669D01*
X56522Y133109D01*
X56984Y133562D01*
X57434Y134025D01*
X57874Y134499D01*
X58302Y134983D01*
X58718Y135478D01*
X59122Y135983D01*
X59513Y136497D01*
X59892Y137020D01*
X60259Y137553D01*
X60612Y138095D01*
X60952Y138644D01*
X61278Y139202D01*
X61591Y139768D01*
X61890Y140341D01*
X62176Y140921D01*
X62447Y141508D01*
X62703Y142101D01*
X62946Y142700D01*
X63173Y143305D01*
X63386Y143916D01*
X63584Y144531D01*
X21590Y131450D02*
X21590Y173350D01*
X35560Y174940D02*
X35560Y178950D01*
X35560Y155260D02*
X35560Y149540D01*
X35560Y129860D02*
X35560Y125850D01*
D13*
X55245Y105791D02*
X66675Y105791D01*
X66675Y104521D02*
X66675Y107061D01*
X55245Y107061D02*
X55245Y104521D01*
X66675Y114263D02*
X66675Y116803D01*
X66675Y114263D02*
X66673Y114163D01*
X66667Y114064D01*
X66657Y113964D01*
X66644Y113866D01*
X66626Y113767D01*
X66605Y113670D01*
X66580Y113574D01*
X66551Y113478D01*
X66518Y113384D01*
X66482Y113291D01*
X66442Y113200D01*
X66398Y113110D01*
X66351Y113022D01*
X66301Y112936D01*
X66247Y112852D01*
X66190Y112770D01*
X66130Y112691D01*
X66066Y112613D01*
X66000Y112539D01*
X65931Y112467D01*
X65859Y112398D01*
X65785Y112332D01*
X65707Y112268D01*
X65628Y112208D01*
X65546Y112151D01*
X65462Y112097D01*
X65376Y112047D01*
X65288Y112000D01*
X65198Y111956D01*
X65107Y111916D01*
X65014Y111880D01*
X64920Y111847D01*
X64824Y111818D01*
X64728Y111793D01*
X64631Y111772D01*
X64532Y111754D01*
X64434Y111741D01*
X64334Y111731D01*
X64235Y111725D01*
X64135Y111723D01*
X57785Y111723D01*
X57685Y111725D01*
X57586Y111731D01*
X57486Y111741D01*
X57388Y111754D01*
X57289Y111772D01*
X57192Y111793D01*
X57096Y111818D01*
X57000Y111847D01*
X56906Y111880D01*
X56813Y111916D01*
X56722Y111956D01*
X56632Y112000D01*
X56544Y112047D01*
X56458Y112097D01*
X56374Y112151D01*
X56292Y112208D01*
X56213Y112268D01*
X56135Y112332D01*
X56061Y112398D01*
X55989Y112467D01*
X55920Y112539D01*
X55854Y112613D01*
X55790Y112691D01*
X55730Y112770D01*
X55673Y112852D01*
X55619Y112936D01*
X55569Y113022D01*
X55522Y113110D01*
X55478Y113200D01*
X55438Y113291D01*
X55402Y113384D01*
X55369Y113478D01*
X55340Y113574D01*
X55315Y113670D01*
X55294Y113767D01*
X55276Y113866D01*
X55263Y113964D01*
X55253Y114064D01*
X55247Y114163D01*
X55245Y114263D01*
X55245Y116803D01*
X55245Y124778D02*
X55247Y124882D01*
X55253Y124987D01*
X55262Y125091D01*
X55275Y125194D01*
X55293Y125297D01*
X55313Y125399D01*
X55338Y125501D01*
X55366Y125601D01*
X55398Y125701D01*
X55434Y125799D01*
X55473Y125896D01*
X55515Y125991D01*
X55561Y126085D01*
X55611Y126177D01*
X55663Y126267D01*
X55719Y126355D01*
X55779Y126441D01*
X55841Y126525D01*
X55906Y126606D01*
X55974Y126685D01*
X56046Y126762D01*
X56119Y126835D01*
X56196Y126907D01*
X56275Y126975D01*
X56356Y127040D01*
X56440Y127102D01*
X56526Y127162D01*
X56614Y127218D01*
X56704Y127270D01*
X56796Y127320D01*
X56890Y127366D01*
X56985Y127408D01*
X57082Y127447D01*
X57180Y127483D01*
X57280Y127515D01*
X57380Y127543D01*
X57482Y127568D01*
X57584Y127588D01*
X57687Y127606D01*
X57790Y127619D01*
X57894Y127628D01*
X57999Y127634D01*
X58103Y127636D01*
X55245Y124778D02*
X55247Y124660D01*
X55253Y124541D01*
X55262Y124423D01*
X55275Y124306D01*
X55293Y124189D01*
X55313Y124072D01*
X55338Y123956D01*
X55366Y123841D01*
X55399Y123728D01*
X55434Y123615D01*
X55474Y123503D01*
X55516Y123393D01*
X55563Y123284D01*
X55613Y123176D01*
X55666Y123071D01*
X55723Y122967D01*
X55783Y122865D01*
X55846Y122765D01*
X55913Y122667D01*
X55982Y122571D01*
X56055Y122478D01*
X56131Y122387D01*
X56209Y122298D01*
X56291Y122212D01*
X56375Y122129D01*
X56461Y122048D01*
X56551Y121971D01*
X56642Y121896D01*
X56736Y121824D01*
X56833Y121755D01*
X56931Y121690D01*
X57032Y121627D01*
X57135Y121568D01*
X57239Y121512D01*
X57345Y121460D01*
X57453Y121411D01*
X57562Y121366D01*
X57673Y121324D01*
X57785Y121286D01*
X60325Y126683D02*
X60250Y126759D01*
X60171Y126834D01*
X60090Y126905D01*
X60006Y126974D01*
X59920Y127039D01*
X59832Y127101D01*
X59742Y127161D01*
X59650Y127217D01*
X59555Y127270D01*
X59459Y127319D01*
X59361Y127365D01*
X59262Y127408D01*
X59161Y127447D01*
X59059Y127482D01*
X58956Y127514D01*
X58852Y127542D01*
X58747Y127567D01*
X58640Y127588D01*
X58534Y127605D01*
X58427Y127618D01*
X58319Y127627D01*
X58211Y127633D01*
X58103Y127635D01*
X60325Y126683D02*
X66675Y121285D01*
X66675Y127635D01*
D11*
X412750Y279400D02*
X419100Y285750D01*
X412750Y279400D02*
X400050Y279400D01*
X393700Y285750D01*
X393700Y298450D01*
X400050Y304800D01*
X412750Y304800D01*
X419100Y298450D01*
X450850Y279400D02*
X463550Y279400D01*
X450850Y279400D02*
X444500Y285750D01*
X444500Y298450D01*
X450850Y304800D01*
X444500Y285750D02*
X438150Y279400D01*
X425450Y279400D01*
X419100Y285750D01*
X419100Y298450D01*
X425450Y304800D01*
X438150Y304800D01*
X444500Y298450D01*
X469900Y298450D02*
X469900Y285750D01*
X463550Y279400D01*
X469900Y298450D02*
X463550Y304800D01*
X450850Y304800D01*
X387350Y279400D02*
X374650Y279400D01*
X368300Y285750D01*
X368300Y298450D01*
X374650Y304800D01*
X393700Y285750D02*
X387350Y279400D01*
X393700Y298450D02*
X387350Y304800D01*
X374650Y304800D01*
D13*
X446838Y273177D02*
X446838Y264287D01*
X446836Y264187D01*
X446830Y264088D01*
X446820Y263988D01*
X446807Y263890D01*
X446789Y263791D01*
X446768Y263694D01*
X446743Y263598D01*
X446714Y263502D01*
X446681Y263408D01*
X446645Y263315D01*
X446605Y263224D01*
X446561Y263134D01*
X446514Y263046D01*
X446464Y262960D01*
X446410Y262876D01*
X446353Y262794D01*
X446293Y262715D01*
X446229Y262637D01*
X446163Y262563D01*
X446094Y262491D01*
X446022Y262422D01*
X445948Y262356D01*
X445870Y262292D01*
X445791Y262232D01*
X445709Y262175D01*
X445625Y262121D01*
X445539Y262071D01*
X445451Y262024D01*
X445361Y261980D01*
X445270Y261940D01*
X445177Y261904D01*
X445083Y261871D01*
X444987Y261842D01*
X444891Y261817D01*
X444794Y261796D01*
X444695Y261778D01*
X444597Y261765D01*
X444497Y261755D01*
X444398Y261749D01*
X444298Y261747D01*
X443028Y261747D01*
X452819Y261747D02*
X452819Y273177D01*
X455994Y273177D01*
X456105Y273175D01*
X456215Y273169D01*
X456326Y273160D01*
X456436Y273146D01*
X456545Y273129D01*
X456654Y273108D01*
X456762Y273083D01*
X456869Y273054D01*
X456975Y273022D01*
X457080Y272986D01*
X457183Y272946D01*
X457285Y272903D01*
X457386Y272856D01*
X457485Y272805D01*
X457582Y272752D01*
X457676Y272695D01*
X457769Y272634D01*
X457860Y272571D01*
X457949Y272504D01*
X458035Y272434D01*
X458118Y272361D01*
X458200Y272286D01*
X458278Y272208D01*
X458353Y272126D01*
X458426Y272043D01*
X458496Y271957D01*
X458563Y271868D01*
X458626Y271777D01*
X458687Y271684D01*
X458744Y271589D01*
X458797Y271493D01*
X458848Y271394D01*
X458895Y271293D01*
X458938Y271191D01*
X458978Y271088D01*
X459014Y270983D01*
X459046Y270877D01*
X459075Y270770D01*
X459100Y270662D01*
X459121Y270553D01*
X459138Y270444D01*
X459152Y270334D01*
X459161Y270223D01*
X459167Y270113D01*
X459169Y270002D01*
X459167Y269891D01*
X459161Y269781D01*
X459152Y269670D01*
X459138Y269560D01*
X459121Y269451D01*
X459100Y269342D01*
X459075Y269234D01*
X459046Y269127D01*
X459014Y269021D01*
X458978Y268916D01*
X458938Y268813D01*
X458895Y268711D01*
X458848Y268610D01*
X458797Y268511D01*
X458744Y268414D01*
X458687Y268320D01*
X458626Y268227D01*
X458563Y268136D01*
X458496Y268047D01*
X458426Y267961D01*
X458353Y267878D01*
X458278Y267796D01*
X458200Y267718D01*
X458118Y267643D01*
X458035Y267570D01*
X457949Y267500D01*
X457860Y267433D01*
X457769Y267370D01*
X457676Y267309D01*
X457582Y267252D01*
X457485Y267199D01*
X457386Y267148D01*
X457285Y267101D01*
X457183Y267058D01*
X457080Y267018D01*
X456975Y266982D01*
X456869Y266950D01*
X456762Y266921D01*
X456654Y266896D01*
X456545Y266875D01*
X456436Y266858D01*
X456326Y266844D01*
X456215Y266835D01*
X456105Y266829D01*
X455994Y266827D01*
X452819Y266827D01*
X463677Y270637D02*
X466852Y273177D01*
X466852Y261747D01*
X463677Y261747D02*
X470027Y261747D01*
D11*
X146050Y25400D02*
X133350Y25400D01*
X127000Y31750D01*
X127000Y44450D01*
X133350Y50800D01*
X171450Y25400D02*
X177800Y31750D01*
X171450Y25400D02*
X158750Y25400D01*
X152400Y31750D01*
X152400Y44450D01*
X158750Y50800D01*
X171450Y50800D01*
X177800Y44450D01*
X152400Y31750D02*
X146050Y25400D01*
X152400Y44450D02*
X146050Y50800D01*
X133350Y50800D01*
X209550Y25400D02*
X222250Y25400D01*
X209550Y25400D02*
X203200Y31750D01*
X203200Y44450D01*
X209550Y50800D01*
X203200Y31750D02*
X196850Y25400D01*
X184150Y25400D01*
X177800Y31750D01*
X177800Y44450D01*
X184150Y50800D01*
X196850Y50800D01*
X203200Y44450D01*
X247650Y25400D02*
X254000Y31750D01*
X247650Y25400D02*
X234950Y25400D01*
X228600Y31750D01*
X228600Y44450D01*
X234950Y50800D01*
X247650Y50800D01*
X254000Y44450D01*
X228600Y31750D02*
X222250Y25400D01*
X228600Y44450D02*
X222250Y50800D01*
X209550Y50800D01*
X285750Y25400D02*
X298450Y25400D01*
X285750Y25400D02*
X279400Y31750D01*
X279400Y44450D01*
X285750Y50800D01*
X279400Y31750D02*
X273050Y25400D01*
X260350Y25400D01*
X254000Y31750D01*
X254000Y44450D01*
X260350Y50800D01*
X273050Y50800D01*
X279400Y44450D01*
X323850Y25400D02*
X330200Y31750D01*
X323850Y25400D02*
X311150Y25400D01*
X304800Y31750D01*
X304800Y44450D01*
X311150Y50800D01*
X323850Y50800D01*
X330200Y44450D01*
X304800Y31750D02*
X298450Y25400D01*
X304800Y44450D02*
X298450Y50800D01*
X285750Y50800D01*
X361950Y25400D02*
X374650Y25400D01*
X361950Y25400D02*
X355600Y31750D01*
X355600Y44450D01*
X361950Y50800D01*
X355600Y31750D02*
X349250Y25400D01*
X336550Y25400D01*
X330200Y31750D01*
X330200Y44450D01*
X336550Y50800D01*
X349250Y50800D01*
X355600Y44450D01*
X400050Y25400D02*
X406400Y31750D01*
X400050Y25400D02*
X387350Y25400D01*
X381000Y31750D01*
X381000Y44450D01*
X387350Y50800D01*
X400050Y50800D01*
X406400Y44450D01*
X381000Y31750D02*
X374650Y25400D01*
X381000Y44450D02*
X374650Y50800D01*
X361950Y50800D01*
X438150Y25400D02*
X450850Y25400D01*
X438150Y25400D02*
X431800Y31750D01*
X431800Y44450D01*
X438150Y50800D01*
X431800Y31750D02*
X425450Y25400D01*
X412750Y25400D01*
X406400Y31750D01*
X406400Y44450D01*
X412750Y50800D01*
X425450Y50800D01*
X431800Y44450D01*
X476250Y25400D02*
X482600Y31750D01*
X476250Y25400D02*
X463550Y25400D01*
X457200Y31750D01*
X457200Y44450D01*
X463550Y50800D01*
X476250Y50800D01*
X482600Y44450D01*
X457200Y31750D02*
X450850Y25400D01*
X457200Y44450D02*
X450850Y50800D01*
X438150Y50800D01*
X514350Y25400D02*
X527050Y25400D01*
X514350Y25400D02*
X508000Y31750D01*
X508000Y44450D01*
X514350Y50800D01*
X508000Y31750D02*
X501650Y25400D01*
X488950Y25400D01*
X482600Y31750D01*
X482600Y44450D01*
X488950Y50800D01*
X501650Y50800D01*
X508000Y44450D01*
X533400Y44450D02*
X533400Y31750D01*
X527050Y25400D01*
X533400Y44450D02*
X527050Y50800D01*
X514350Y50800D01*
X127000Y31750D02*
X120650Y25400D01*
X107950Y25400D01*
X101600Y31750D01*
X101600Y44450D01*
X107950Y50800D01*
X120650Y50800D01*
X127000Y44450D01*
D13*
X510338Y19177D02*
X510338Y10287D01*
X510336Y10187D01*
X510330Y10088D01*
X510320Y9988D01*
X510307Y9890D01*
X510289Y9791D01*
X510268Y9694D01*
X510243Y9598D01*
X510214Y9502D01*
X510181Y9408D01*
X510145Y9315D01*
X510105Y9224D01*
X510061Y9134D01*
X510014Y9046D01*
X509964Y8960D01*
X509910Y8876D01*
X509853Y8794D01*
X509793Y8715D01*
X509729Y8637D01*
X509663Y8563D01*
X509594Y8491D01*
X509522Y8422D01*
X509448Y8356D01*
X509370Y8292D01*
X509291Y8232D01*
X509209Y8175D01*
X509125Y8121D01*
X509039Y8071D01*
X508951Y8024D01*
X508861Y7980D01*
X508770Y7940D01*
X508677Y7904D01*
X508583Y7871D01*
X508487Y7842D01*
X508391Y7817D01*
X508294Y7796D01*
X508195Y7778D01*
X508097Y7765D01*
X507997Y7755D01*
X507898Y7749D01*
X507798Y7747D01*
X506528Y7747D01*
X516319Y7747D02*
X516319Y19177D01*
X519494Y19177D01*
X519605Y19175D01*
X519715Y19169D01*
X519826Y19160D01*
X519936Y19146D01*
X520045Y19129D01*
X520154Y19108D01*
X520262Y19083D01*
X520369Y19054D01*
X520475Y19022D01*
X520580Y18986D01*
X520683Y18946D01*
X520785Y18903D01*
X520886Y18856D01*
X520985Y18805D01*
X521082Y18752D01*
X521176Y18695D01*
X521269Y18634D01*
X521360Y18571D01*
X521449Y18504D01*
X521535Y18434D01*
X521618Y18361D01*
X521700Y18286D01*
X521778Y18208D01*
X521853Y18126D01*
X521926Y18043D01*
X521996Y17957D01*
X522063Y17868D01*
X522126Y17777D01*
X522187Y17684D01*
X522244Y17589D01*
X522297Y17493D01*
X522348Y17394D01*
X522395Y17293D01*
X522438Y17191D01*
X522478Y17088D01*
X522514Y16983D01*
X522546Y16877D01*
X522575Y16770D01*
X522600Y16662D01*
X522621Y16553D01*
X522638Y16444D01*
X522652Y16334D01*
X522661Y16223D01*
X522667Y16113D01*
X522669Y16002D01*
X522667Y15891D01*
X522661Y15781D01*
X522652Y15670D01*
X522638Y15560D01*
X522621Y15451D01*
X522600Y15342D01*
X522575Y15234D01*
X522546Y15127D01*
X522514Y15021D01*
X522478Y14916D01*
X522438Y14813D01*
X522395Y14711D01*
X522348Y14610D01*
X522297Y14511D01*
X522244Y14414D01*
X522187Y14320D01*
X522126Y14227D01*
X522063Y14136D01*
X521996Y14047D01*
X521926Y13961D01*
X521853Y13878D01*
X521778Y13796D01*
X521700Y13718D01*
X521618Y13643D01*
X521535Y13570D01*
X521449Y13500D01*
X521360Y13433D01*
X521269Y13370D01*
X521176Y13309D01*
X521082Y13252D01*
X520985Y13199D01*
X520886Y13148D01*
X520785Y13101D01*
X520683Y13058D01*
X520580Y13018D01*
X520475Y12982D01*
X520369Y12950D01*
X520262Y12921D01*
X520154Y12896D01*
X520045Y12875D01*
X519936Y12858D01*
X519826Y12844D01*
X519715Y12835D01*
X519605Y12829D01*
X519494Y12827D01*
X516319Y12827D01*
X530670Y19178D02*
X530774Y19176D01*
X530879Y19170D01*
X530983Y19161D01*
X531086Y19148D01*
X531189Y19130D01*
X531291Y19110D01*
X531393Y19085D01*
X531493Y19057D01*
X531593Y19025D01*
X531691Y18989D01*
X531788Y18950D01*
X531883Y18908D01*
X531977Y18862D01*
X532069Y18812D01*
X532159Y18760D01*
X532247Y18704D01*
X532333Y18644D01*
X532417Y18582D01*
X532498Y18517D01*
X532577Y18449D01*
X532654Y18377D01*
X532727Y18304D01*
X532799Y18227D01*
X532867Y18148D01*
X532932Y18067D01*
X532994Y17983D01*
X533054Y17897D01*
X533110Y17809D01*
X533162Y17719D01*
X533212Y17627D01*
X533258Y17533D01*
X533300Y17438D01*
X533339Y17341D01*
X533375Y17243D01*
X533407Y17143D01*
X533435Y17043D01*
X533460Y16941D01*
X533480Y16839D01*
X533498Y16736D01*
X533511Y16633D01*
X533520Y16529D01*
X533526Y16424D01*
X533528Y16320D01*
X530670Y19177D02*
X530552Y19175D01*
X530433Y19169D01*
X530315Y19160D01*
X530198Y19147D01*
X530081Y19129D01*
X529964Y19109D01*
X529848Y19084D01*
X529733Y19056D01*
X529620Y19023D01*
X529507Y18988D01*
X529395Y18948D01*
X529285Y18906D01*
X529176Y18859D01*
X529068Y18809D01*
X528963Y18756D01*
X528859Y18699D01*
X528757Y18639D01*
X528657Y18576D01*
X528559Y18509D01*
X528463Y18440D01*
X528370Y18367D01*
X528279Y18291D01*
X528190Y18213D01*
X528104Y18131D01*
X528021Y18047D01*
X527940Y17961D01*
X527863Y17871D01*
X527788Y17780D01*
X527716Y17686D01*
X527647Y17589D01*
X527582Y17491D01*
X527519Y17390D01*
X527460Y17287D01*
X527404Y17183D01*
X527352Y17077D01*
X527303Y16969D01*
X527258Y16860D01*
X527216Y16749D01*
X527178Y16637D01*
X532575Y14098D02*
X532651Y14173D01*
X532726Y14252D01*
X532797Y14333D01*
X532866Y14417D01*
X532931Y14503D01*
X532993Y14591D01*
X533053Y14681D01*
X533109Y14773D01*
X533162Y14868D01*
X533211Y14964D01*
X533257Y15062D01*
X533300Y15161D01*
X533339Y15262D01*
X533374Y15364D01*
X533406Y15467D01*
X533434Y15571D01*
X533459Y15676D01*
X533480Y15783D01*
X533497Y15889D01*
X533510Y15996D01*
X533519Y16104D01*
X533525Y16212D01*
X533527Y16320D01*
X532575Y14097D02*
X527177Y7747D01*
X533527Y7747D01*
D11*
X313690Y314960D02*
X245110Y314960D01*
X245110Y269240D02*
X313690Y269240D01*
D17*
X313690Y309880D02*
X245110Y309880D01*
X245110Y274320D02*
X313690Y274320D01*
X245110Y274320D02*
X244677Y274325D01*
X244244Y274341D01*
X243812Y274367D01*
X243381Y274404D01*
X242950Y274452D01*
X242521Y274509D01*
X242094Y274578D01*
X241668Y274656D01*
X241244Y274745D01*
X240823Y274845D01*
X240404Y274954D01*
X239988Y275074D01*
X239575Y275204D01*
X239165Y275343D01*
X238758Y275493D01*
X238356Y275653D01*
X237957Y275822D01*
X237563Y276001D01*
X237173Y276190D01*
X236788Y276388D01*
X236408Y276595D01*
X236033Y276811D01*
X235664Y277037D01*
X235300Y277272D01*
X234941Y277515D01*
X234589Y277767D01*
X234243Y278027D01*
X233904Y278296D01*
X233571Y278573D01*
X233245Y278858D01*
X232926Y279151D01*
X232614Y279451D01*
X232310Y279759D01*
X232013Y280075D01*
X231724Y280397D01*
X231443Y280727D01*
X231171Y281063D01*
X230906Y281405D01*
X230650Y281755D01*
X230402Y282110D01*
X230163Y282471D01*
X229933Y282838D01*
X229712Y283210D01*
X229500Y283588D01*
X229297Y283970D01*
X229104Y284358D01*
X228920Y284750D01*
X228746Y285146D01*
X228582Y285547D01*
X228427Y285951D01*
X228282Y286359D01*
X228147Y286771D01*
X228023Y287185D01*
X227908Y287603D01*
X227804Y288023D01*
X227710Y288446D01*
X227626Y288870D01*
X227552Y289297D01*
X227489Y289726D01*
X227437Y290155D01*
X227395Y290586D01*
X227363Y291018D01*
X227342Y291451D01*
X227331Y291884D01*
X227331Y292316D01*
X227342Y292749D01*
X227363Y293182D01*
X227395Y293614D01*
X227437Y294045D01*
X227489Y294474D01*
X227552Y294903D01*
X227626Y295330D01*
X227710Y295754D01*
X227804Y296177D01*
X227908Y296597D01*
X228023Y297015D01*
X228147Y297429D01*
X228282Y297841D01*
X228427Y298249D01*
X228582Y298653D01*
X228746Y299054D01*
X228920Y299450D01*
X229104Y299842D01*
X229297Y300230D01*
X229500Y300612D01*
X229712Y300990D01*
X229933Y301362D01*
X230163Y301729D01*
X230402Y302090D01*
X230650Y302445D01*
X230906Y302795D01*
X231171Y303137D01*
X231443Y303473D01*
X231724Y303803D01*
X232013Y304125D01*
X232310Y304441D01*
X232614Y304749D01*
X232926Y305049D01*
X233245Y305342D01*
X233571Y305627D01*
X233904Y305904D01*
X234243Y306173D01*
X234589Y306433D01*
X234941Y306685D01*
X235300Y306928D01*
X235664Y307163D01*
X236033Y307389D01*
X236408Y307605D01*
X236788Y307812D01*
X237173Y308010D01*
X237563Y308199D01*
X237957Y308378D01*
X238356Y308547D01*
X238758Y308707D01*
X239165Y308857D01*
X239575Y308996D01*
X239988Y309126D01*
X240404Y309246D01*
X240823Y309355D01*
X241244Y309455D01*
X241668Y309544D01*
X242094Y309622D01*
X242521Y309691D01*
X242950Y309748D01*
X243381Y309796D01*
X243812Y309833D01*
X244244Y309859D01*
X244677Y309875D01*
X245110Y309880D01*
D11*
X245110Y314960D02*
X244553Y314953D01*
X243997Y314933D01*
X243441Y314899D01*
X242887Y314852D01*
X242333Y314791D01*
X241782Y314716D01*
X241232Y314629D01*
X240684Y314528D01*
X240140Y314413D01*
X239598Y314285D01*
X239059Y314145D01*
X238524Y313991D01*
X237993Y313824D01*
X237466Y313644D01*
X236944Y313452D01*
X236426Y313246D01*
X235914Y313029D01*
X235407Y312799D01*
X234906Y312556D01*
X234411Y312302D01*
X233922Y312035D01*
X233440Y311757D01*
X232965Y311467D01*
X232497Y311165D01*
X232036Y310852D01*
X231583Y310528D01*
X231139Y310194D01*
X230702Y309848D01*
X230274Y309492D01*
X229855Y309125D01*
X229445Y308749D01*
X229044Y308363D01*
X228653Y307967D01*
X228272Y307561D01*
X227900Y307146D01*
X227539Y306723D01*
X227188Y306291D01*
X226848Y305850D01*
X226518Y305401D01*
X226200Y304945D01*
X225893Y304480D01*
X225597Y304009D01*
X225313Y303530D01*
X225040Y303045D01*
X224780Y302553D01*
X224531Y302054D01*
X224295Y301550D01*
X224071Y301041D01*
X223859Y300526D01*
X223661Y300006D01*
X223474Y299481D01*
X223301Y298952D01*
X223141Y298419D01*
X222993Y297882D01*
X222859Y297342D01*
X222738Y296798D01*
X222630Y296252D01*
X222536Y295704D01*
X222455Y295153D01*
X222387Y294600D01*
X222333Y294046D01*
X222292Y293491D01*
X222265Y292935D01*
X222252Y292378D01*
X222252Y291822D01*
X222265Y291265D01*
X222292Y290709D01*
X222333Y290154D01*
X222387Y289600D01*
X222455Y289047D01*
X222536Y288496D01*
X222630Y287948D01*
X222738Y287402D01*
X222859Y286858D01*
X222993Y286318D01*
X223141Y285781D01*
X223301Y285248D01*
X223474Y284719D01*
X223661Y284194D01*
X223859Y283674D01*
X224071Y283159D01*
X224295Y282650D01*
X224531Y282146D01*
X224780Y281647D01*
X225040Y281155D01*
X225313Y280670D01*
X225597Y280191D01*
X225893Y279720D01*
X226200Y279255D01*
X226518Y278799D01*
X226848Y278350D01*
X227188Y277909D01*
X227539Y277477D01*
X227900Y277054D01*
X228272Y276639D01*
X228653Y276233D01*
X229044Y275837D01*
X229445Y275451D01*
X229855Y275075D01*
X230274Y274708D01*
X230702Y274352D01*
X231139Y274006D01*
X231583Y273672D01*
X232036Y273348D01*
X232497Y273035D01*
X232965Y272733D01*
X233440Y272443D01*
X233922Y272165D01*
X234411Y271898D01*
X234906Y271644D01*
X235407Y271401D01*
X235914Y271171D01*
X236426Y270954D01*
X236944Y270748D01*
X237466Y270556D01*
X237993Y270376D01*
X238524Y270209D01*
X239059Y270055D01*
X239598Y269915D01*
X240140Y269787D01*
X240684Y269672D01*
X241232Y269571D01*
X241782Y269484D01*
X242333Y269409D01*
X242887Y269348D01*
X243441Y269301D01*
X243997Y269267D01*
X244553Y269247D01*
X245110Y269240D01*
X313690Y269240D02*
X314247Y269247D01*
X314803Y269267D01*
X315359Y269301D01*
X315913Y269348D01*
X316467Y269409D01*
X317018Y269484D01*
X317568Y269571D01*
X318116Y269672D01*
X318660Y269787D01*
X319202Y269915D01*
X319741Y270055D01*
X320276Y270209D01*
X320807Y270376D01*
X321334Y270556D01*
X321856Y270748D01*
X322374Y270954D01*
X322886Y271171D01*
X323393Y271401D01*
X323894Y271644D01*
X324389Y271898D01*
X324878Y272165D01*
X325360Y272443D01*
X325835Y272733D01*
X326303Y273035D01*
X326764Y273348D01*
X327217Y273672D01*
X327661Y274006D01*
X328098Y274352D01*
X328526Y274708D01*
X328945Y275075D01*
X329355Y275451D01*
X329756Y275837D01*
X330147Y276233D01*
X330528Y276639D01*
X330900Y277054D01*
X331261Y277477D01*
X331612Y277909D01*
X331952Y278350D01*
X332282Y278799D01*
X332600Y279255D01*
X332907Y279720D01*
X333203Y280191D01*
X333487Y280670D01*
X333760Y281155D01*
X334020Y281647D01*
X334269Y282146D01*
X334505Y282650D01*
X334729Y283159D01*
X334941Y283674D01*
X335139Y284194D01*
X335326Y284719D01*
X335499Y285248D01*
X335659Y285781D01*
X335807Y286318D01*
X335941Y286858D01*
X336062Y287402D01*
X336170Y287948D01*
X336264Y288496D01*
X336345Y289047D01*
X336413Y289600D01*
X336467Y290154D01*
X336508Y290709D01*
X336535Y291265D01*
X336548Y291822D01*
X336548Y292378D01*
X336535Y292935D01*
X336508Y293491D01*
X336467Y294046D01*
X336413Y294600D01*
X336345Y295153D01*
X336264Y295704D01*
X336170Y296252D01*
X336062Y296798D01*
X335941Y297342D01*
X335807Y297882D01*
X335659Y298419D01*
X335499Y298952D01*
X335326Y299481D01*
X335139Y300006D01*
X334941Y300526D01*
X334729Y301041D01*
X334505Y301550D01*
X334269Y302054D01*
X334020Y302553D01*
X333760Y303045D01*
X333487Y303530D01*
X333203Y304009D01*
X332907Y304480D01*
X332600Y304945D01*
X332282Y305401D01*
X331952Y305850D01*
X331612Y306291D01*
X331261Y306723D01*
X330900Y307146D01*
X330528Y307561D01*
X330147Y307967D01*
X329756Y308363D01*
X329355Y308749D01*
X328945Y309125D01*
X328526Y309492D01*
X328098Y309848D01*
X327661Y310194D01*
X327217Y310528D01*
X326764Y310852D01*
X326303Y311165D01*
X325835Y311467D01*
X325360Y311757D01*
X324878Y312035D01*
X324389Y312302D01*
X323894Y312556D01*
X323393Y312799D01*
X322886Y313029D01*
X322374Y313246D01*
X321856Y313452D01*
X321334Y313644D01*
X320807Y313824D01*
X320276Y313991D01*
X319741Y314145D01*
X319202Y314285D01*
X318660Y314413D01*
X318116Y314528D01*
X317568Y314629D01*
X317018Y314716D01*
X316467Y314791D01*
X315913Y314852D01*
X315359Y314899D01*
X314803Y314933D01*
X314247Y314953D01*
X313690Y314960D01*
D17*
X313690Y309880D02*
X314123Y309875D01*
X314556Y309859D01*
X314988Y309833D01*
X315419Y309796D01*
X315850Y309748D01*
X316279Y309691D01*
X316706Y309622D01*
X317132Y309544D01*
X317556Y309455D01*
X317977Y309355D01*
X318396Y309246D01*
X318812Y309126D01*
X319225Y308996D01*
X319635Y308857D01*
X320042Y308707D01*
X320444Y308547D01*
X320843Y308378D01*
X321237Y308199D01*
X321627Y308010D01*
X322012Y307812D01*
X322392Y307605D01*
X322767Y307389D01*
X323136Y307163D01*
X323500Y306928D01*
X323859Y306685D01*
X324211Y306433D01*
X324557Y306173D01*
X324896Y305904D01*
X325229Y305627D01*
X325555Y305342D01*
X325874Y305049D01*
X326186Y304749D01*
X326490Y304441D01*
X326787Y304125D01*
X327076Y303803D01*
X327357Y303473D01*
X327629Y303137D01*
X327894Y302795D01*
X328150Y302445D01*
X328398Y302090D01*
X328637Y301729D01*
X328867Y301362D01*
X329088Y300990D01*
X329300Y300612D01*
X329503Y300230D01*
X329696Y299842D01*
X329880Y299450D01*
X330054Y299054D01*
X330218Y298653D01*
X330373Y298249D01*
X330518Y297841D01*
X330653Y297429D01*
X330777Y297015D01*
X330892Y296597D01*
X330996Y296177D01*
X331090Y295754D01*
X331174Y295330D01*
X331248Y294903D01*
X331311Y294474D01*
X331363Y294045D01*
X331405Y293614D01*
X331437Y293182D01*
X331458Y292749D01*
X331469Y292316D01*
X331469Y291884D01*
X331458Y291451D01*
X331437Y291018D01*
X331405Y290586D01*
X331363Y290155D01*
X331311Y289726D01*
X331248Y289297D01*
X331174Y288870D01*
X331090Y288446D01*
X330996Y288023D01*
X330892Y287603D01*
X330777Y287185D01*
X330653Y286771D01*
X330518Y286359D01*
X330373Y285951D01*
X330218Y285547D01*
X330054Y285146D01*
X329880Y284750D01*
X329696Y284358D01*
X329503Y283970D01*
X329300Y283588D01*
X329088Y283210D01*
X328867Y282838D01*
X328637Y282471D01*
X328398Y282110D01*
X328150Y281755D01*
X327894Y281405D01*
X327629Y281063D01*
X327357Y280727D01*
X327076Y280397D01*
X326787Y280075D01*
X326490Y279759D01*
X326186Y279451D01*
X325874Y279151D01*
X325555Y278858D01*
X325229Y278573D01*
X324896Y278296D01*
X324557Y278027D01*
X324211Y277767D01*
X323859Y277515D01*
X323500Y277272D01*
X323136Y277037D01*
X322767Y276811D01*
X322392Y276595D01*
X322012Y276388D01*
X321627Y276190D01*
X321237Y276001D01*
X320843Y275822D01*
X320444Y275653D01*
X320042Y275493D01*
X319635Y275343D01*
X319225Y275204D01*
X318812Y275074D01*
X318396Y274954D01*
X317977Y274845D01*
X317556Y274745D01*
X317132Y274656D01*
X316706Y274578D01*
X316279Y274509D01*
X315850Y274452D01*
X315419Y274404D01*
X314988Y274367D01*
X314556Y274341D01*
X314123Y274325D01*
X313690Y274320D01*
D13*
X312154Y261620D02*
X312154Y256540D01*
X312154Y261620D02*
X312156Y261731D01*
X312162Y261841D01*
X312171Y261952D01*
X312185Y262062D01*
X312202Y262171D01*
X312223Y262280D01*
X312248Y262388D01*
X312277Y262495D01*
X312309Y262601D01*
X312345Y262706D01*
X312385Y262809D01*
X312428Y262911D01*
X312475Y263012D01*
X312526Y263111D01*
X312579Y263208D01*
X312636Y263302D01*
X312697Y263395D01*
X312760Y263486D01*
X312827Y263575D01*
X312897Y263661D01*
X312970Y263744D01*
X313045Y263826D01*
X313123Y263904D01*
X313205Y263979D01*
X313288Y264052D01*
X313374Y264122D01*
X313463Y264189D01*
X313554Y264252D01*
X313647Y264313D01*
X313742Y264370D01*
X313838Y264423D01*
X313937Y264474D01*
X314038Y264521D01*
X314140Y264564D01*
X314243Y264604D01*
X314348Y264640D01*
X314454Y264672D01*
X314561Y264701D01*
X314669Y264726D01*
X314778Y264747D01*
X314887Y264764D01*
X314997Y264778D01*
X315108Y264787D01*
X315218Y264793D01*
X315329Y264795D01*
X315440Y264793D01*
X315550Y264787D01*
X315661Y264778D01*
X315771Y264764D01*
X315880Y264747D01*
X315989Y264726D01*
X316097Y264701D01*
X316204Y264672D01*
X316310Y264640D01*
X316415Y264604D01*
X316518Y264564D01*
X316620Y264521D01*
X316721Y264474D01*
X316820Y264423D01*
X316917Y264370D01*
X317011Y264313D01*
X317104Y264252D01*
X317195Y264189D01*
X317284Y264122D01*
X317370Y264052D01*
X317453Y263979D01*
X317535Y263904D01*
X317613Y263826D01*
X317688Y263744D01*
X317761Y263661D01*
X317831Y263575D01*
X317898Y263486D01*
X317961Y263395D01*
X318022Y263302D01*
X318079Y263208D01*
X318132Y263111D01*
X318183Y263012D01*
X318230Y262911D01*
X318273Y262809D01*
X318313Y262706D01*
X318349Y262601D01*
X318381Y262495D01*
X318410Y262388D01*
X318435Y262280D01*
X318456Y262171D01*
X318473Y262062D01*
X318487Y261952D01*
X318496Y261841D01*
X318502Y261731D01*
X318504Y261620D01*
X318504Y256540D01*
X318502Y256429D01*
X318496Y256319D01*
X318487Y256208D01*
X318473Y256098D01*
X318456Y255989D01*
X318435Y255880D01*
X318410Y255772D01*
X318381Y255665D01*
X318349Y255559D01*
X318313Y255454D01*
X318273Y255351D01*
X318230Y255249D01*
X318183Y255148D01*
X318132Y255049D01*
X318079Y254952D01*
X318022Y254858D01*
X317961Y254765D01*
X317898Y254674D01*
X317831Y254585D01*
X317761Y254499D01*
X317688Y254416D01*
X317613Y254334D01*
X317535Y254256D01*
X317453Y254181D01*
X317370Y254108D01*
X317284Y254038D01*
X317195Y253971D01*
X317104Y253908D01*
X317011Y253847D01*
X316916Y253790D01*
X316820Y253737D01*
X316721Y253686D01*
X316620Y253639D01*
X316518Y253596D01*
X316415Y253556D01*
X316310Y253520D01*
X316204Y253488D01*
X316097Y253459D01*
X315989Y253434D01*
X315880Y253413D01*
X315771Y253396D01*
X315661Y253382D01*
X315550Y253373D01*
X315440Y253367D01*
X315329Y253365D01*
X315218Y253367D01*
X315108Y253373D01*
X314997Y253382D01*
X314887Y253396D01*
X314778Y253413D01*
X314669Y253434D01*
X314561Y253459D01*
X314454Y253488D01*
X314348Y253520D01*
X314243Y253556D01*
X314140Y253596D01*
X314038Y253639D01*
X313937Y253686D01*
X313838Y253737D01*
X313742Y253790D01*
X313647Y253847D01*
X313554Y253908D01*
X313463Y253971D01*
X313374Y254038D01*
X313288Y254108D01*
X313205Y254181D01*
X313123Y254256D01*
X313045Y254334D01*
X312970Y254416D01*
X312897Y254499D01*
X312827Y254585D01*
X312760Y254674D01*
X312697Y254765D01*
X312636Y254858D01*
X312579Y254953D01*
X312526Y255049D01*
X312475Y255148D01*
X312428Y255249D01*
X312385Y255351D01*
X312345Y255454D01*
X312309Y255559D01*
X312277Y255665D01*
X312248Y255772D01*
X312223Y255880D01*
X312202Y255989D01*
X312185Y256098D01*
X312171Y256208D01*
X312162Y256319D01*
X312156Y256429D01*
X312154Y256540D01*
X317234Y255905D02*
X319774Y253365D01*
X323215Y262255D02*
X326390Y264795D01*
X326390Y253365D01*
X323215Y253365D02*
X329565Y253365D01*
D10*
X559308Y159445D02*
X570992Y159445D01*
X559308Y159445D02*
X559308Y162690D01*
X559310Y162803D01*
X559316Y162916D01*
X559326Y163029D01*
X559340Y163142D01*
X559357Y163254D01*
X559379Y163365D01*
X559404Y163475D01*
X559434Y163585D01*
X559467Y163693D01*
X559504Y163800D01*
X559544Y163906D01*
X559589Y164010D01*
X559637Y164113D01*
X559688Y164214D01*
X559743Y164313D01*
X559801Y164410D01*
X559863Y164505D01*
X559928Y164598D01*
X559996Y164688D01*
X560067Y164776D01*
X560142Y164862D01*
X560219Y164945D01*
X560299Y165025D01*
X560382Y165102D01*
X560468Y165177D01*
X560556Y165248D01*
X560646Y165316D01*
X560739Y165381D01*
X560834Y165443D01*
X560931Y165501D01*
X561030Y165556D01*
X561131Y165607D01*
X561234Y165655D01*
X561338Y165700D01*
X561444Y165740D01*
X561551Y165777D01*
X561659Y165810D01*
X561769Y165840D01*
X561879Y165865D01*
X561990Y165887D01*
X562102Y165904D01*
X562215Y165918D01*
X562328Y165928D01*
X562441Y165934D01*
X562554Y165936D01*
X562667Y165934D01*
X562780Y165928D01*
X562893Y165918D01*
X563006Y165904D01*
X563118Y165887D01*
X563229Y165865D01*
X563339Y165840D01*
X563449Y165810D01*
X563557Y165777D01*
X563664Y165740D01*
X563770Y165700D01*
X563874Y165655D01*
X563977Y165607D01*
X564078Y165556D01*
X564177Y165501D01*
X564274Y165443D01*
X564369Y165381D01*
X564462Y165316D01*
X564552Y165248D01*
X564640Y165177D01*
X564726Y165102D01*
X564809Y165025D01*
X564889Y164945D01*
X564966Y164862D01*
X565041Y164776D01*
X565112Y164688D01*
X565180Y164598D01*
X565245Y164505D01*
X565307Y164410D01*
X565365Y164313D01*
X565420Y164214D01*
X565471Y164113D01*
X565519Y164010D01*
X565564Y163906D01*
X565604Y163800D01*
X565641Y163693D01*
X565674Y163585D01*
X565704Y163475D01*
X565729Y163365D01*
X565751Y163254D01*
X565768Y163142D01*
X565782Y163029D01*
X565792Y162916D01*
X565798Y162803D01*
X565800Y162690D01*
X565799Y162690D02*
X565799Y159445D01*
X565799Y163339D02*
X570992Y165936D01*
X561904Y170801D02*
X559308Y174046D01*
X570992Y174046D01*
X570992Y170801D02*
X570992Y177292D01*
D11*
X41910Y342900D02*
X41920Y343742D01*
X41951Y344583D01*
X42003Y345423D01*
X42075Y346261D01*
X42168Y347097D01*
X42281Y347931D01*
X42415Y348762D01*
X42569Y349590D01*
X42743Y350413D01*
X42938Y351232D01*
X43152Y352046D01*
X43387Y352854D01*
X43641Y353656D01*
X43914Y354452D01*
X44208Y355241D01*
X44520Y356022D01*
X44852Y356796D01*
X45202Y357561D01*
X45571Y358317D01*
X45959Y359064D01*
X46365Y359801D01*
X46788Y360529D01*
X47230Y361245D01*
X47689Y361951D01*
X48165Y362644D01*
X48658Y363327D01*
X49168Y363996D01*
X49693Y364653D01*
X50235Y365297D01*
X50793Y365928D01*
X51366Y366544D01*
X51953Y367147D01*
X52556Y367734D01*
X53172Y368307D01*
X53803Y368865D01*
X54447Y369407D01*
X55104Y369932D01*
X55773Y370442D01*
X56456Y370935D01*
X57149Y371411D01*
X57855Y371870D01*
X58571Y372312D01*
X59299Y372735D01*
X60036Y373141D01*
X60783Y373529D01*
X61539Y373898D01*
X62304Y374248D01*
X63078Y374580D01*
X63859Y374892D01*
X64648Y375186D01*
X65444Y375459D01*
X66246Y375713D01*
X67054Y375948D01*
X67868Y376162D01*
X68687Y376357D01*
X69510Y376531D01*
X70338Y376685D01*
X71169Y376819D01*
X72003Y376932D01*
X72839Y377025D01*
X73677Y377097D01*
X74517Y377149D01*
X75358Y377180D01*
X76200Y377190D01*
X77042Y377180D01*
X77883Y377149D01*
X78723Y377097D01*
X79561Y377025D01*
X80397Y376932D01*
X81231Y376819D01*
X82062Y376685D01*
X82890Y376531D01*
X83713Y376357D01*
X84532Y376162D01*
X85346Y375948D01*
X86154Y375713D01*
X86956Y375459D01*
X87752Y375186D01*
X88541Y374892D01*
X89322Y374580D01*
X90096Y374248D01*
X90861Y373898D01*
X91617Y373529D01*
X92364Y373141D01*
X93101Y372735D01*
X93829Y372312D01*
X94545Y371870D01*
X95251Y371411D01*
X95944Y370935D01*
X96627Y370442D01*
X97296Y369932D01*
X97953Y369407D01*
X98597Y368865D01*
X99228Y368307D01*
X99844Y367734D01*
X100447Y367147D01*
X101034Y366544D01*
X101607Y365928D01*
X102165Y365297D01*
X102707Y364653D01*
X103232Y363996D01*
X103742Y363327D01*
X104235Y362644D01*
X104711Y361951D01*
X105170Y361245D01*
X105612Y360529D01*
X106035Y359801D01*
X106441Y359064D01*
X106829Y358317D01*
X107198Y357561D01*
X107548Y356796D01*
X107880Y356022D01*
X108192Y355241D01*
X108486Y354452D01*
X108759Y353656D01*
X109013Y352854D01*
X109248Y352046D01*
X109462Y351232D01*
X109657Y350413D01*
X109831Y349590D01*
X109985Y348762D01*
X110119Y347931D01*
X110232Y347097D01*
X110325Y346261D01*
X110397Y345423D01*
X110449Y344583D01*
X110480Y343742D01*
X110490Y342900D01*
X110480Y342058D01*
X110449Y341217D01*
X110397Y340377D01*
X110325Y339539D01*
X110232Y338703D01*
X110119Y337869D01*
X109985Y337038D01*
X109831Y336210D01*
X109657Y335387D01*
X109462Y334568D01*
X109248Y333754D01*
X109013Y332946D01*
X108759Y332144D01*
X108486Y331348D01*
X108192Y330559D01*
X107880Y329778D01*
X107548Y329004D01*
X107198Y328239D01*
X106829Y327483D01*
X106441Y326736D01*
X106035Y325999D01*
X105612Y325271D01*
X105170Y324555D01*
X104711Y323849D01*
X104235Y323156D01*
X103742Y322473D01*
X103232Y321804D01*
X102707Y321147D01*
X102165Y320503D01*
X101607Y319872D01*
X101034Y319256D01*
X100447Y318653D01*
X99844Y318066D01*
X99228Y317493D01*
X98597Y316935D01*
X97953Y316393D01*
X97296Y315868D01*
X96627Y315358D01*
X95944Y314865D01*
X95251Y314389D01*
X94545Y313930D01*
X93829Y313488D01*
X93101Y313065D01*
X92364Y312659D01*
X91617Y312271D01*
X90861Y311902D01*
X90096Y311552D01*
X89322Y311220D01*
X88541Y310908D01*
X87752Y310614D01*
X86956Y310341D01*
X86154Y310087D01*
X85346Y309852D01*
X84532Y309638D01*
X83713Y309443D01*
X82890Y309269D01*
X82062Y309115D01*
X81231Y308981D01*
X80397Y308868D01*
X79561Y308775D01*
X78723Y308703D01*
X77883Y308651D01*
X77042Y308620D01*
X76200Y308610D01*
X75358Y308620D01*
X74517Y308651D01*
X73677Y308703D01*
X72839Y308775D01*
X72003Y308868D01*
X71169Y308981D01*
X70338Y309115D01*
X69510Y309269D01*
X68687Y309443D01*
X67868Y309638D01*
X67054Y309852D01*
X66246Y310087D01*
X65444Y310341D01*
X64648Y310614D01*
X63859Y310908D01*
X63078Y311220D01*
X62304Y311552D01*
X61539Y311902D01*
X60783Y312271D01*
X60036Y312659D01*
X59299Y313065D01*
X58571Y313488D01*
X57855Y313930D01*
X57149Y314389D01*
X56456Y314865D01*
X55773Y315358D01*
X55104Y315868D01*
X54447Y316393D01*
X53803Y316935D01*
X53172Y317493D01*
X52556Y318066D01*
X51953Y318653D01*
X51366Y319256D01*
X50793Y319872D01*
X50235Y320503D01*
X49693Y321147D01*
X49168Y321804D01*
X48658Y322473D01*
X48165Y323156D01*
X47689Y323849D01*
X47230Y324555D01*
X46788Y325271D01*
X46365Y325999D01*
X45959Y326736D01*
X45571Y327483D01*
X45202Y328239D01*
X44852Y329004D01*
X44520Y329778D01*
X44208Y330559D01*
X43914Y331348D01*
X43641Y332144D01*
X43387Y332946D01*
X43152Y333754D01*
X42938Y334568D01*
X42743Y335387D01*
X42569Y336210D01*
X42415Y337038D01*
X42281Y337869D01*
X42168Y338703D01*
X42075Y339539D01*
X42003Y340377D01*
X41951Y341217D01*
X41920Y342058D01*
X41910Y342900D01*
D18*
X60200Y342900D02*
X60205Y343293D01*
X60219Y343685D01*
X60243Y344077D01*
X60277Y344468D01*
X60320Y344859D01*
X60373Y345248D01*
X60436Y345635D01*
X60507Y346021D01*
X60589Y346406D01*
X60679Y346788D01*
X60780Y347167D01*
X60889Y347545D01*
X61008Y347919D01*
X61135Y348290D01*
X61272Y348658D01*
X61418Y349023D01*
X61573Y349384D01*
X61736Y349741D01*
X61908Y350094D01*
X62089Y350442D01*
X62279Y350786D01*
X62476Y351126D01*
X62682Y351460D01*
X62896Y351789D01*
X63119Y352113D01*
X63349Y352431D01*
X63586Y352744D01*
X63832Y353050D01*
X64085Y353351D01*
X64345Y353645D01*
X64612Y353933D01*
X64886Y354214D01*
X65167Y354488D01*
X65455Y354755D01*
X65749Y355015D01*
X66050Y355268D01*
X66356Y355514D01*
X66669Y355751D01*
X66987Y355981D01*
X67311Y356204D01*
X67640Y356418D01*
X67974Y356624D01*
X68314Y356821D01*
X68658Y357011D01*
X69006Y357192D01*
X69359Y357364D01*
X69716Y357527D01*
X70077Y357682D01*
X70442Y357828D01*
X70810Y357965D01*
X71181Y358092D01*
X71555Y358211D01*
X71933Y358320D01*
X72312Y358421D01*
X72694Y358511D01*
X73079Y358593D01*
X73465Y358664D01*
X73852Y358727D01*
X74241Y358780D01*
X74632Y358823D01*
X75023Y358857D01*
X75415Y358881D01*
X75807Y358895D01*
X76200Y358900D01*
X76593Y358895D01*
X76985Y358881D01*
X77377Y358857D01*
X77768Y358823D01*
X78159Y358780D01*
X78548Y358727D01*
X78935Y358664D01*
X79321Y358593D01*
X79706Y358511D01*
X80088Y358421D01*
X80467Y358320D01*
X80845Y358211D01*
X81219Y358092D01*
X81590Y357965D01*
X81958Y357828D01*
X82323Y357682D01*
X82684Y357527D01*
X83041Y357364D01*
X83394Y357192D01*
X83742Y357011D01*
X84086Y356821D01*
X84426Y356624D01*
X84760Y356418D01*
X85089Y356204D01*
X85413Y355981D01*
X85731Y355751D01*
X86044Y355514D01*
X86350Y355268D01*
X86651Y355015D01*
X86945Y354755D01*
X87233Y354488D01*
X87514Y354214D01*
X87788Y353933D01*
X88055Y353645D01*
X88315Y353351D01*
X88568Y353050D01*
X88814Y352744D01*
X89051Y352431D01*
X89281Y352113D01*
X89504Y351789D01*
X89718Y351460D01*
X89924Y351126D01*
X90121Y350786D01*
X90311Y350442D01*
X90492Y350094D01*
X90664Y349741D01*
X90827Y349384D01*
X90982Y349023D01*
X91128Y348658D01*
X91265Y348290D01*
X91392Y347919D01*
X91511Y347545D01*
X91620Y347167D01*
X91721Y346788D01*
X91811Y346406D01*
X91893Y346021D01*
X91964Y345635D01*
X92027Y345248D01*
X92080Y344859D01*
X92123Y344468D01*
X92157Y344077D01*
X92181Y343685D01*
X92195Y343293D01*
X92200Y342900D01*
X92195Y342507D01*
X92181Y342115D01*
X92157Y341723D01*
X92123Y341332D01*
X92080Y340941D01*
X92027Y340552D01*
X91964Y340165D01*
X91893Y339779D01*
X91811Y339394D01*
X91721Y339012D01*
X91620Y338633D01*
X91511Y338255D01*
X91392Y337881D01*
X91265Y337510D01*
X91128Y337142D01*
X90982Y336777D01*
X90827Y336416D01*
X90664Y336059D01*
X90492Y335706D01*
X90311Y335358D01*
X90121Y335014D01*
X89924Y334674D01*
X89718Y334340D01*
X89504Y334011D01*
X89281Y333687D01*
X89051Y333369D01*
X88814Y333056D01*
X88568Y332750D01*
X88315Y332449D01*
X88055Y332155D01*
X87788Y331867D01*
X87514Y331586D01*
X87233Y331312D01*
X86945Y331045D01*
X86651Y330785D01*
X86350Y330532D01*
X86044Y330286D01*
X85731Y330049D01*
X85413Y329819D01*
X85089Y329596D01*
X84760Y329382D01*
X84426Y329176D01*
X84086Y328979D01*
X83742Y328789D01*
X83394Y328608D01*
X83041Y328436D01*
X82684Y328273D01*
X82323Y328118D01*
X81958Y327972D01*
X81590Y327835D01*
X81219Y327708D01*
X80845Y327589D01*
X80467Y327480D01*
X80088Y327379D01*
X79706Y327289D01*
X79321Y327207D01*
X78935Y327136D01*
X78548Y327073D01*
X78159Y327020D01*
X77768Y326977D01*
X77377Y326943D01*
X76985Y326919D01*
X76593Y326905D01*
X76200Y326900D01*
X75807Y326905D01*
X75415Y326919D01*
X75023Y326943D01*
X74632Y326977D01*
X74241Y327020D01*
X73852Y327073D01*
X73465Y327136D01*
X73079Y327207D01*
X72694Y327289D01*
X72312Y327379D01*
X71933Y327480D01*
X71555Y327589D01*
X71181Y327708D01*
X70810Y327835D01*
X70442Y327972D01*
X70077Y328118D01*
X69716Y328273D01*
X69359Y328436D01*
X69006Y328608D01*
X68658Y328789D01*
X68314Y328979D01*
X67974Y329176D01*
X67640Y329382D01*
X67311Y329596D01*
X66987Y329819D01*
X66669Y330049D01*
X66356Y330286D01*
X66050Y330532D01*
X65749Y330785D01*
X65455Y331045D01*
X65167Y331312D01*
X64886Y331586D01*
X64612Y331867D01*
X64345Y332155D01*
X64085Y332449D01*
X63832Y332750D01*
X63586Y333056D01*
X63349Y333369D01*
X63119Y333687D01*
X62896Y334011D01*
X62682Y334340D01*
X62476Y334674D01*
X62279Y335014D01*
X62089Y335358D01*
X61908Y335706D01*
X61736Y336059D01*
X61573Y336416D01*
X61418Y336777D01*
X61272Y337142D01*
X61135Y337510D01*
X61008Y337881D01*
X60889Y338255D01*
X60780Y338633D01*
X60679Y339012D01*
X60589Y339394D01*
X60507Y339779D01*
X60436Y340165D01*
X60373Y340552D01*
X60320Y340941D01*
X60277Y341332D01*
X60243Y341723D01*
X60219Y342115D01*
X60205Y342507D01*
X60200Y342900D01*
D11*
X486410Y342900D02*
X486420Y343742D01*
X486451Y344583D01*
X486503Y345423D01*
X486575Y346261D01*
X486668Y347097D01*
X486781Y347931D01*
X486915Y348762D01*
X487069Y349590D01*
X487243Y350413D01*
X487438Y351232D01*
X487652Y352046D01*
X487887Y352854D01*
X488141Y353656D01*
X488414Y354452D01*
X488708Y355241D01*
X489020Y356022D01*
X489352Y356796D01*
X489702Y357561D01*
X490071Y358317D01*
X490459Y359064D01*
X490865Y359801D01*
X491288Y360529D01*
X491730Y361245D01*
X492189Y361951D01*
X492665Y362644D01*
X493158Y363327D01*
X493668Y363996D01*
X494193Y364653D01*
X494735Y365297D01*
X495293Y365928D01*
X495866Y366544D01*
X496453Y367147D01*
X497056Y367734D01*
X497672Y368307D01*
X498303Y368865D01*
X498947Y369407D01*
X499604Y369932D01*
X500273Y370442D01*
X500956Y370935D01*
X501649Y371411D01*
X502355Y371870D01*
X503071Y372312D01*
X503799Y372735D01*
X504536Y373141D01*
X505283Y373529D01*
X506039Y373898D01*
X506804Y374248D01*
X507578Y374580D01*
X508359Y374892D01*
X509148Y375186D01*
X509944Y375459D01*
X510746Y375713D01*
X511554Y375948D01*
X512368Y376162D01*
X513187Y376357D01*
X514010Y376531D01*
X514838Y376685D01*
X515669Y376819D01*
X516503Y376932D01*
X517339Y377025D01*
X518177Y377097D01*
X519017Y377149D01*
X519858Y377180D01*
X520700Y377190D01*
X521542Y377180D01*
X522383Y377149D01*
X523223Y377097D01*
X524061Y377025D01*
X524897Y376932D01*
X525731Y376819D01*
X526562Y376685D01*
X527390Y376531D01*
X528213Y376357D01*
X529032Y376162D01*
X529846Y375948D01*
X530654Y375713D01*
X531456Y375459D01*
X532252Y375186D01*
X533041Y374892D01*
X533822Y374580D01*
X534596Y374248D01*
X535361Y373898D01*
X536117Y373529D01*
X536864Y373141D01*
X537601Y372735D01*
X538329Y372312D01*
X539045Y371870D01*
X539751Y371411D01*
X540444Y370935D01*
X541127Y370442D01*
X541796Y369932D01*
X542453Y369407D01*
X543097Y368865D01*
X543728Y368307D01*
X544344Y367734D01*
X544947Y367147D01*
X545534Y366544D01*
X546107Y365928D01*
X546665Y365297D01*
X547207Y364653D01*
X547732Y363996D01*
X548242Y363327D01*
X548735Y362644D01*
X549211Y361951D01*
X549670Y361245D01*
X550112Y360529D01*
X550535Y359801D01*
X550941Y359064D01*
X551329Y358317D01*
X551698Y357561D01*
X552048Y356796D01*
X552380Y356022D01*
X552692Y355241D01*
X552986Y354452D01*
X553259Y353656D01*
X553513Y352854D01*
X553748Y352046D01*
X553962Y351232D01*
X554157Y350413D01*
X554331Y349590D01*
X554485Y348762D01*
X554619Y347931D01*
X554732Y347097D01*
X554825Y346261D01*
X554897Y345423D01*
X554949Y344583D01*
X554980Y343742D01*
X554990Y342900D01*
X554980Y342058D01*
X554949Y341217D01*
X554897Y340377D01*
X554825Y339539D01*
X554732Y338703D01*
X554619Y337869D01*
X554485Y337038D01*
X554331Y336210D01*
X554157Y335387D01*
X553962Y334568D01*
X553748Y333754D01*
X553513Y332946D01*
X553259Y332144D01*
X552986Y331348D01*
X552692Y330559D01*
X552380Y329778D01*
X552048Y329004D01*
X551698Y328239D01*
X551329Y327483D01*
X550941Y326736D01*
X550535Y325999D01*
X550112Y325271D01*
X549670Y324555D01*
X549211Y323849D01*
X548735Y323156D01*
X548242Y322473D01*
X547732Y321804D01*
X547207Y321147D01*
X546665Y320503D01*
X546107Y319872D01*
X545534Y319256D01*
X544947Y318653D01*
X544344Y318066D01*
X543728Y317493D01*
X543097Y316935D01*
X542453Y316393D01*
X541796Y315868D01*
X541127Y315358D01*
X540444Y314865D01*
X539751Y314389D01*
X539045Y313930D01*
X538329Y313488D01*
X537601Y313065D01*
X536864Y312659D01*
X536117Y312271D01*
X535361Y311902D01*
X534596Y311552D01*
X533822Y311220D01*
X533041Y310908D01*
X532252Y310614D01*
X531456Y310341D01*
X530654Y310087D01*
X529846Y309852D01*
X529032Y309638D01*
X528213Y309443D01*
X527390Y309269D01*
X526562Y309115D01*
X525731Y308981D01*
X524897Y308868D01*
X524061Y308775D01*
X523223Y308703D01*
X522383Y308651D01*
X521542Y308620D01*
X520700Y308610D01*
X519858Y308620D01*
X519017Y308651D01*
X518177Y308703D01*
X517339Y308775D01*
X516503Y308868D01*
X515669Y308981D01*
X514838Y309115D01*
X514010Y309269D01*
X513187Y309443D01*
X512368Y309638D01*
X511554Y309852D01*
X510746Y310087D01*
X509944Y310341D01*
X509148Y310614D01*
X508359Y310908D01*
X507578Y311220D01*
X506804Y311552D01*
X506039Y311902D01*
X505283Y312271D01*
X504536Y312659D01*
X503799Y313065D01*
X503071Y313488D01*
X502355Y313930D01*
X501649Y314389D01*
X500956Y314865D01*
X500273Y315358D01*
X499604Y315868D01*
X498947Y316393D01*
X498303Y316935D01*
X497672Y317493D01*
X497056Y318066D01*
X496453Y318653D01*
X495866Y319256D01*
X495293Y319872D01*
X494735Y320503D01*
X494193Y321147D01*
X493668Y321804D01*
X493158Y322473D01*
X492665Y323156D01*
X492189Y323849D01*
X491730Y324555D01*
X491288Y325271D01*
X490865Y325999D01*
X490459Y326736D01*
X490071Y327483D01*
X489702Y328239D01*
X489352Y329004D01*
X489020Y329778D01*
X488708Y330559D01*
X488414Y331348D01*
X488141Y332144D01*
X487887Y332946D01*
X487652Y333754D01*
X487438Y334568D01*
X487243Y335387D01*
X487069Y336210D01*
X486915Y337038D01*
X486781Y337869D01*
X486668Y338703D01*
X486575Y339539D01*
X486503Y340377D01*
X486451Y341217D01*
X486420Y342058D01*
X486410Y342900D01*
D18*
X504700Y342900D02*
X504705Y343293D01*
X504719Y343685D01*
X504743Y344077D01*
X504777Y344468D01*
X504820Y344859D01*
X504873Y345248D01*
X504936Y345635D01*
X505007Y346021D01*
X505089Y346406D01*
X505179Y346788D01*
X505280Y347167D01*
X505389Y347545D01*
X505508Y347919D01*
X505635Y348290D01*
X505772Y348658D01*
X505918Y349023D01*
X506073Y349384D01*
X506236Y349741D01*
X506408Y350094D01*
X506589Y350442D01*
X506779Y350786D01*
X506976Y351126D01*
X507182Y351460D01*
X507396Y351789D01*
X507619Y352113D01*
X507849Y352431D01*
X508086Y352744D01*
X508332Y353050D01*
X508585Y353351D01*
X508845Y353645D01*
X509112Y353933D01*
X509386Y354214D01*
X509667Y354488D01*
X509955Y354755D01*
X510249Y355015D01*
X510550Y355268D01*
X510856Y355514D01*
X511169Y355751D01*
X511487Y355981D01*
X511811Y356204D01*
X512140Y356418D01*
X512474Y356624D01*
X512814Y356821D01*
X513158Y357011D01*
X513506Y357192D01*
X513859Y357364D01*
X514216Y357527D01*
X514577Y357682D01*
X514942Y357828D01*
X515310Y357965D01*
X515681Y358092D01*
X516055Y358211D01*
X516433Y358320D01*
X516812Y358421D01*
X517194Y358511D01*
X517579Y358593D01*
X517965Y358664D01*
X518352Y358727D01*
X518741Y358780D01*
X519132Y358823D01*
X519523Y358857D01*
X519915Y358881D01*
X520307Y358895D01*
X520700Y358900D01*
X521093Y358895D01*
X521485Y358881D01*
X521877Y358857D01*
X522268Y358823D01*
X522659Y358780D01*
X523048Y358727D01*
X523435Y358664D01*
X523821Y358593D01*
X524206Y358511D01*
X524588Y358421D01*
X524967Y358320D01*
X525345Y358211D01*
X525719Y358092D01*
X526090Y357965D01*
X526458Y357828D01*
X526823Y357682D01*
X527184Y357527D01*
X527541Y357364D01*
X527894Y357192D01*
X528242Y357011D01*
X528586Y356821D01*
X528926Y356624D01*
X529260Y356418D01*
X529589Y356204D01*
X529913Y355981D01*
X530231Y355751D01*
X530544Y355514D01*
X530850Y355268D01*
X531151Y355015D01*
X531445Y354755D01*
X531733Y354488D01*
X532014Y354214D01*
X532288Y353933D01*
X532555Y353645D01*
X532815Y353351D01*
X533068Y353050D01*
X533314Y352744D01*
X533551Y352431D01*
X533781Y352113D01*
X534004Y351789D01*
X534218Y351460D01*
X534424Y351126D01*
X534621Y350786D01*
X534811Y350442D01*
X534992Y350094D01*
X535164Y349741D01*
X535327Y349384D01*
X535482Y349023D01*
X535628Y348658D01*
X535765Y348290D01*
X535892Y347919D01*
X536011Y347545D01*
X536120Y347167D01*
X536221Y346788D01*
X536311Y346406D01*
X536393Y346021D01*
X536464Y345635D01*
X536527Y345248D01*
X536580Y344859D01*
X536623Y344468D01*
X536657Y344077D01*
X536681Y343685D01*
X536695Y343293D01*
X536700Y342900D01*
X536695Y342507D01*
X536681Y342115D01*
X536657Y341723D01*
X536623Y341332D01*
X536580Y340941D01*
X536527Y340552D01*
X536464Y340165D01*
X536393Y339779D01*
X536311Y339394D01*
X536221Y339012D01*
X536120Y338633D01*
X536011Y338255D01*
X535892Y337881D01*
X535765Y337510D01*
X535628Y337142D01*
X535482Y336777D01*
X535327Y336416D01*
X535164Y336059D01*
X534992Y335706D01*
X534811Y335358D01*
X534621Y335014D01*
X534424Y334674D01*
X534218Y334340D01*
X534004Y334011D01*
X533781Y333687D01*
X533551Y333369D01*
X533314Y333056D01*
X533068Y332750D01*
X532815Y332449D01*
X532555Y332155D01*
X532288Y331867D01*
X532014Y331586D01*
X531733Y331312D01*
X531445Y331045D01*
X531151Y330785D01*
X530850Y330532D01*
X530544Y330286D01*
X530231Y330049D01*
X529913Y329819D01*
X529589Y329596D01*
X529260Y329382D01*
X528926Y329176D01*
X528586Y328979D01*
X528242Y328789D01*
X527894Y328608D01*
X527541Y328436D01*
X527184Y328273D01*
X526823Y328118D01*
X526458Y327972D01*
X526090Y327835D01*
X525719Y327708D01*
X525345Y327589D01*
X524967Y327480D01*
X524588Y327379D01*
X524206Y327289D01*
X523821Y327207D01*
X523435Y327136D01*
X523048Y327073D01*
X522659Y327020D01*
X522268Y326977D01*
X521877Y326943D01*
X521485Y326919D01*
X521093Y326905D01*
X520700Y326900D01*
X520307Y326905D01*
X519915Y326919D01*
X519523Y326943D01*
X519132Y326977D01*
X518741Y327020D01*
X518352Y327073D01*
X517965Y327136D01*
X517579Y327207D01*
X517194Y327289D01*
X516812Y327379D01*
X516433Y327480D01*
X516055Y327589D01*
X515681Y327708D01*
X515310Y327835D01*
X514942Y327972D01*
X514577Y328118D01*
X514216Y328273D01*
X513859Y328436D01*
X513506Y328608D01*
X513158Y328789D01*
X512814Y328979D01*
X512474Y329176D01*
X512140Y329382D01*
X511811Y329596D01*
X511487Y329819D01*
X511169Y330049D01*
X510856Y330286D01*
X510550Y330532D01*
X510249Y330785D01*
X509955Y331045D01*
X509667Y331312D01*
X509386Y331586D01*
X509112Y331867D01*
X508845Y332155D01*
X508585Y332449D01*
X508332Y332750D01*
X508086Y333056D01*
X507849Y333369D01*
X507619Y333687D01*
X507396Y334011D01*
X507182Y334340D01*
X506976Y334674D01*
X506779Y335014D01*
X506589Y335358D01*
X506408Y335706D01*
X506236Y336059D01*
X506073Y336416D01*
X505918Y336777D01*
X505772Y337142D01*
X505635Y337510D01*
X505508Y337881D01*
X505389Y338255D01*
X505280Y338633D01*
X505179Y339012D01*
X505089Y339394D01*
X505007Y339779D01*
X504936Y340165D01*
X504873Y340552D01*
X504820Y340941D01*
X504777Y341332D01*
X504743Y341723D01*
X504719Y342115D01*
X504705Y342507D01*
X504700Y342900D01*
M02*
